<svg xmlns="http://www.w3.org/2000/svg" xml:space="preserve" id="Layer_1" x="0" y="0" style="enable-background:new 0 0 552 182.4" version="1.1" viewBox="0 0 552 182.4"><style>.st0{fill:#98c5e9}.st1{fill:#e0ecf8}.st2{fill:#2c2e30}.st3{fill:#f58136}.st4{fill:#c64c29}.st5{fill:#f68a47}.st6{fill:#f68741}</style><path d="M273.2 95.6V74.4c0-.8.1-1.6.2-2.4.2-1.4 1.7-2.4 3.4-2.4h33.7c15.4 0 30.7-.1 46.1.1 28.2.4 56.4.1 84.6.2 2.7 0 5.7 2.5 5.8 5.7.2 11.7.1 23.3.2 35 0 3.3-2.3 5.6-5.6 5.6h-28.3c-27.7 0-55.4-.1-83 .1-17.5.1-35 0-52.5.2-2.8 0-4.6-1.8-4.6-4.7 0-4.9 0-9.8.1-14.6 1.1.7 2.2 1.4 3.3 2 1 .6 1.9.2 1.9-.8 0-.9.4-.9 1.1-.9 2.4 0 4.7 0 7.1.1.6 0 1.3 0 1.3-.8s-.7-.8-1.3-.8h-7.3c-.6 0-.8-.1-.9-.8-.1-1.4-.9-1.8-2.2-1.1-1.1.3-2.1.9-3.1 1.5zm98.7 17.2v.2h8.6c18.8 0 37.7-.1 56.5.1.7 0 1.3 0 1.2 1 0 1 .8 1.2 1.5.9 1.6-.6 3.2-1.3 4.7-2 .4-.2.7-.4.7-.9s-.3-.8-.7-.9c-1.6-.6-3.2-1.2-4.8-1.7-.7-.2-1.5 0-1.4.9.1 1.1-.5 1.1-1.3 1.1-13.4-.1-26.7-.1-40.1-.1-27.6-.1-55.2-.1-82.8-.2h-7.4c-.6 0-1.3 0-1.4.8 0 .9.7.8 1.3.8h65.4zm-43.1-9.4v-.2h-22.1c-.6 0-1.1.2-1 .9 0 .6.5.7 1 .7h43.6c.9 0 1.3.2 1.3 1.2-.1 1.2.7 1.6 1.8 1l3.6-1.8c.4-.2.8-.5.8-1.1 0-.6-.3-.9-.8-1.1-1.3-.6-2.6-1.3-4-1.9-1-.5-1.6-.1-1.5 1 0 1-.3 1.2-1.2 1.2-7.1.1-14.3.1-21.5.1zm-31.1-14.9c-.5-.8-1-1.5-1.5-2.1-.5-.6-.5-1 0-1.6 1.5-1.7 1.6-4.6.4-6.6-1.1-1.8-3.5-2.9-5.7-2.4-3.2.6-5.1 3.5-4.5 6.6.6 3.2 3.6 5.1 6.8 4.3.7-.2 1.2-.2 1.5.6.6 1.2 1.6 1.5 3 1.2zm-12.9-9.4c0-2.7-2.9-4-5.2-3.3-1.5.5-2.5 1.5-2.6 2.9-.1 1.4.7 2.4 2.3 2.9.9.3 1.8.4 2.6.7 1.1.4 1.4 1.6.7 2.3-1 1-3.4.7-3.9-.6-.4-1-1.2-.9-1.7-.7-.7.2-.2.9 0 1.4.7 1.8 2.8 2.5 5.2 1.9 1.7-.4 2.7-1.4 2.7-2.9.1-1.7-.7-2.6-2.5-3.1-.9-.3-1.8-.4-2.6-.8-1-.4-1.2-1.4-.5-2.1.9-.8 2.9-.7 3.3.4.5 1.4 1.3 1.1 2.2 1zm50.6 0c.1-2.7-2.7-3.9-4.8-3.4-1.8.4-2.9 1.6-2.9 3.1s.9 2.5 2.7 3c.8.2 1.6.3 2.3.6.6.2 1 .6 1 1.3 0 .7-.4 1-1 1.2-1.5.6-2.7.2-3.5-1.3-.4-.8-1.2-.5-1.7-.4-.4.1-.2.7-.1 1 .2.4.4.9.7 1.2 1.2 1.2 2.7 1.5 4.3 1.1 2-.4 3-1.4 3.1-2.9.1-1.8-.7-2.7-2.9-3.3-.8-.2-1.6-.3-2.3-.6-.9-.4-1.1-1.3-.4-2 .9-.9 2.9-.7 3.4.4.4 1.3 1.2 1.2 2.1 1zm-26.3 7.5c1.9.1 2 .1 2.1-.5.3-1.5 1.2-1.7 2.5-1.6.7.1 1.4 0 2.2 0 .6 0 .9.2 1 .7.2 1.6 1.3 1.6 2.5 1.3-1.3-3.4-2.6-6.7-3.9-10.1-.3-.7-.7-.6-1.2-.6s-1-.1-1.2.6c-1.3 3.4-2.6 6.8-4 10.2zm-.9-6.6v-3.1c0-.6.1-1.1-.8-1-.8 0-1 .2-1 1 0 2 .2 4.1-.1 6.1-.2 1.4-1.2 2.3-2.6 2.3-1.4 0-2.3-.9-2.5-2.4-.2-2.1-.1-4.1-.1-6.2 0-.8-.5-.7-1-.8-.6 0-.9 0-.9.7v6.2c.1 2.2 1.7 3.8 3.9 4.1 2.3.2 4.1-1 4.7-3.1.6-1.4.3-2.7.4-3.8zm13.5 2.1v3.6c0 .7.2 1 .9.9.7 0 1-.1 1-.9-.1-2 0-3.9 0-5.9 0-2.2 0-2.3 2.3-2.3.7 0 .9-.2.9-.9 0-.6-.1-.9-.8-.9h-6.3c-.7 0-1 .2-1 .9s.3.9.9.8h1.2c.9-.1 1.1.3 1 1.1-.2 1.3-.1 2.5-.1 3.6zm80.7-7.5c-1.6 0-1.6 0-1.6 1.5v2.3c0 2.1 0 2.1 2.1 2 2.1-.1 3.2-1.4 3-3.5-.3-1.5-1.4-2.3-3.5-2.3zm30.3 4v1c0 .3-.2.7.3.8.6.2.6-.2.7-.7.2-1-.7-2.2.7-3 .1-.1.1-.5-.2-.6-1-.3-.5-.7 0-1 .3-.2.3-.5.2-.7-.2-.4-.5-.1-.7-.1-.7.1-.9.7-.9 1.3 0 .6-.5.5-.8.7-.2.1-.7-.1-.8-.3-.2-.4.1-.6.4-.8.3-.2.3-.5.2-.7-.1-.3-.4-.1-.6-.1-.4.1-.8.3-.8.6 0 .8-1.6 1.4-.3 2.4.1.1 0 .4 0 .6v1.8c0 .4-.1.7.5.7s.5-.4.5-.8c0-.6.1-1.3 0-1.9-.1-.7.4-1 .9-1s.9.3.8.9c-.1.3-.1.6-.1.9zm-20.4.8c.9-.9 1.9-1.4 2.3-2.5.3-1-.1-2-1-2.3-1-.4-2.2 0-2.5.9-.1.3-.4.8.1 1 .4.2.7 0 .8-.5.1-.6.7-.8 1.2-.5.6.3.6.8.4 1.3-.2.3-.4.6-.7.8l-1.7 1.7c-.3.3-.3.5-.2.9.1.4.5.2.7.2h2.4c.3 0 .8.2.8-.4 0-.7-.5-.5-.8-.5-.6-.1-1.1-.1-1.8-.1zm-19.9-2.6V78c.1 1.6.9 2.5 2.4 2.5s2.4-.9 2.5-2.5v-2.6c0-.3.1-.7-.5-.8-.7 0-.5.5-.5.8 0 1 0 1.9-.1 2.9-.1.9-.7 1.4-1.6 1.3-.8-.1-1.2-.6-1.2-1.5v-3c0-.4-.2-.5-.5-.5-.4 0-.5.1-.5.5 0 .6-.1 1.1 0 1.7zm-5.3 0v-1.6c0-.4-.1-.6-.5-.6-.5 0-.5.3-.5.6v2.7c0 1.6.9 2.5 2.4 2.5s2.4-.9 2.5-2.5v-2.6c0-.3.1-.7-.5-.8-.6 0-.5.4-.5.7 0 1 0 2.1-.1 3.1-.1.8-.7 1.2-1.5 1.1-.8-.1-1.2-.5-1.2-1.4-.1-.3-.1-.8-.1-1.2zm-92.2 27.6c-.5-.5-.4-1.1-.6-1.7-.1-.4-.2-.8-.7-.8-.5 0-.5.4-.6.7-.2.5-.3 1-.6 1.9-.3-1-.5-1.6-.7-2.3-.1-.3-.3-.4-.6-.3-.4.1-.2.4-.1.6.3.9.6 1.9.9 2.8.1.3.1.5.5.5s.5-.2.6-.5c.3-.6.2-1.3.7-1.9.2.7.4 1.3.6 1.9.1.3.1.6.6.6.4 0 .6-.2.6-.6.3-.9.5-1.8.8-2.7.1-.2.4-.5-.1-.6-.3-.1-.6 0-.7.5-.2.5-.4 1.2-.6 1.9zm143.2-29.8c-.5 0-.9-.1-1.2.1-1 .7-2 3.1-1.8 4.3.2 1 1 1.5 2 1.5s1.9-.7 2-1.7c.1-1-.3-1.7-1.3-2-.3-.1-.7-.2-1.2-.3.6-.7 1-1.2 1.5-1.9zm2.6 5.8c.3 0 .6.1.9 0 1.5-.4 2.8-3.8 1.9-5.1-.5-.7-1.2-1-2-.8-1 .1-1.6.7-1.7 1.7-.1.8.2 1.4.8 1.9.5.4 1.1.2 1.5.4-.2.8-1 1.1-1.4 1.9zm-22.1-5.7c-.4-.2-.8-.2-1.1 0-1.1.6-2.1 3.1-1.8 4.3.2.8.8 1.3 1.7 1.4.9.1 1.6-.2 2.1-1.1.3-.6.3-1.2 0-1.7-.4-.9-1.3-1-2.3-1.2.5-.6.9-1.1 1.4-1.7zm4 5.7c.4 0 .8-.1 1.2-.5.3-.3.7-.6.4-1-.3-.3-.7-.1-1 .2-.5.6-1.1.6-1.5 0-.5-.6-.5-1.4 0-2 .5-.6 1.2-.5 1.6.1.3.3.7.5.9.3.4-.4-.1-.7-.3-1-.8-.7-1.7-.8-2.5-.3-1 .6-1.2 1.5-.9 2.6.3 1.2 1 1.7 2.1 1.6zm4.6 0c.3 0 .7-.1 1.1-.4.3-.3.8-.7.5-1.1-.3-.4-.8-.1-1.1.3-.4.5-1 .5-1.4.1-.6-.6-.7-1.4-.1-2 .5-.6 1.2-.5 1.6.1.3.3.7.5.9.3.4-.4 0-.7-.3-1-.7-.7-1.6-.8-2.5-.3-1 .6-1.2 1.5-.9 2.6.3 1 1 1.5 2.2 1.4zM293.5 95.8l1.4 2.1c.2.4.5.5.9.4.4-.1.2-.5.3-.7v-2.4c0-.3.1-.8-.5-.8-.5 0-.4.4-.4.7v1.4c-.6-.6-1-1.1-1.4-1.7-.2-.4-.5-.6-.9-.4-.4.1-.2.5-.2.7v2.6c0 .3 0 .6.4.5.4 0 .3-.3.3-.5.1-.4.1-1 .1-1.9zm9.6 2.5c-.5-.8-.8-1.4-.2-2.3.4-.6 0-1.2-.8-1.4-.5-.1-.9 0-1.4-.1-.6-.1-.8.2-.7.8v2.5c0 .3-.1.7.4.7.4 0 .3-.4.4-.6.1-.3-.2-.8.4-.8.6-.1.6.4.8.7.1.4.3.8 1.1.5zm-10.8 13.3v1.4c0 .2 0 .5.3.5.8 0 1.7.1 2.4-.4.8-.6.8-1.5.5-2.4-.3-.9-1.7-1.4-2.8-1.1-1 .3-.3 1.1-.5 1.6.1.1.1.2.1.4zm-2.9-15.1c.2.7-.7 2.2 1.3 1.9.5-.1 1.5.4 1.5-.4 0-.7-.9-.2-1.4-.3-.3-.1-.6 0-.6-.4 0-.3.1-.5.5-.5.5-.1 1.4.3 1.4-.3 0-.7-.9-.2-1.4-.4-.2-.1-.5 0-.5-.4 0-.3.2-.4.5-.4h1.1c.3 0 .5-.1.5-.4 0-.3-.2-.3-.5-.4-2.1-.4-2.4-.1-2.4 2zm11.1 15.1c0 2 0 2 1.4 1.9.5 0 1.3.3 1.3-.3 0-.8-.9-.3-1.3-.4h-.1c-.3 0-.5 0-.5-.4s.2-.4.5-.5c.5-.1 1.4.4 1.3-.4 0-.7-.9-.2-1.4-.3-.2-.1-.5-.1-.5-.4 0-.3.2-.4.5-.4h1.1c.3 0 .5-.1.5-.4 0-.2-.2-.3-.4-.3-1.8-.4-2.4 0-2.4 1.8v.1zm-.8-.6v-.6c0-.3.1-.8-.4-.8-.7 0-.4.5-.5.9v1.2c0 .6 0 1.2-.8 1.1-.8 0-.8-.6-.8-1.2V110c0-.3-.1-.5-.4-.5-.3 0-.4.2-.4.5v2c0 1 .6 1.4 1.6 1.4 1.2.2 1.7-.5 1.7-2.4zm-3.5-5.2c.3 0 .6.2.8-.1.7-.9 1.3-.9 2 0 .2.3.5.2.7.1.3-.2 0-.4-.1-.6-.3-.9-.6-1.8-1-2.7-.1-.3-.2-.6-.6-.6-.5 0-.6.3-.7.6-.3 1.1-.7 2.2-1.1 3.3zm1.9-11.3H297c-.2 0-.4.1-.4.3 0 .2 0 .5.3.4 1.1-.1.8.7.8 1.3v1.3c0 .3-.1.6.4.6.4 0 .4-.3.4-.6v-1.9c0-.4 0-.7.5-.7.3 0 .6-.1.5-.4 0-.4-.4-.3-.7-.3h-.7zm5.1 7.4h-1.1c-.2 0-.4 0-.4.3 0 .2 0 .5.3.4 1.1-.1.8.7.9 1.3.1.6-.4 1.8.3 1.8.9 0 .2-1.2.4-1.9.1-.5-.3-1.3.8-1.2.2 0 .3-.2.3-.4s-.2-.3-.4-.3h-1.1zm3.7-7.4c-1.3-.3-1.1 1-1.7 1.5-.4-.3-.5-.9-.8-1.3-.2-.3-.5-.3-.7-.2-.5.2 0 .5.1.6.5.9 1.2 1.8 1.1 2.9 0 .3.2.3.4.3.3 0 .4-.2.3-.4-.3-1.2.8-2.1 1.3-3.4zm91.5-17.1v2.4c0 .3 0 .6.5.6s.5-.3.5-.6v-4.6c0-.4-.1-.6-.5-.6s-.4.2-.4.5c-.1.8-.1 1.6-.1 2.3zm-97.2 26.4v-1.3c0-.3 0-.6-.4-.6-.3 0-.4.3-.4.5v3c0 .3.1.5.4.4.3 0 .3-.2.3-.5.1-.5.1-1 .1-1.5zm106.8-27c0-.4-.2-.7-.6-.7-.4 0-.7.3-.7.7 0 .3.2.6.6.6.4 0 .6-.2.7-.6zm-1.3 3c0 .5.3.7.7.7.4 0 .6-.2.6-.6 0-.4-.3-.6-.7-.6-.5-.1-.6.2-.6.5zM91.2 68.4c1.5 0 3.1.2 4.6-.1.1.3.2.3.5.2h4.8c.5 0 1 .1 1.6.1h73.2c1.5 0 2.8.3 4 1.2 1.6 1.2 2.1 2.9 2.1 4.7v36.6c-1.6-.6-3.2-1.2-4.8-1.7-.7-.2-1.6-.2-1.6.7 0 1.5-.8 1.3-1.7 1.3l-97.6-.3c-10.7 0-21.4-.1-32-.1-.6 0-1.6-.2-1.6.8s.9.8 1.5.8h.1c18.3.1 36.7.1 55 .2 24.9.1 49.7-.1 74.6.2 1 0 1.8 0 1.7 1.4 0 .2.2.4.4.6h-1.7c-38.4 0-76.9-.1-115.3.1-14.4.1-28.8 0-43.2.2-2.6 0-4.8-2.3-4.7-4.8.2-4.6.1-9.1.1-13.7.1 0 .2-.1.3-.1 1.2.7 2.3 1.5 3.5 2.2.9.5 1.8.2 1.8-.8s.4-1 1.2-1c2.2.1 4.4.1 6.6.1.7 0 1.7.2 1.7-.8 0-1.1-1-.8-1.6-.8h-6.8c-.7 0-1-.1-1-.9 0-1.2-.9-1.7-2-1.1-1.2.6-2.3 1.4-3.5 2.1-.5-3.1 0-6.2 0-9.3-.1-4.5.1-9.1-.1-13.6 0-1.8.3-3.2 1.8-4.3.8 0 1.7-.1 2.5-.1h75.6zm-25.3 35v-.2H43.7c-.6.1-1.1.2-1 .9 0 .6.5.7 1 .7h43.6c.9 0 1.4.1 1.3 1.2-.1 1.2.7 1.6 1.8 1.1l3.6-1.8c.4-.2.8-.5.8-1.1 0-.6-.3-.9-.8-1.1-1.3-.6-2.6-1.3-4-1.9-1-.5-1.6-.1-1.5 1 .1 1.1-.4 1.2-1.3 1.2H65.9zM33.7 88c-.6-.8-1-1.5-1.5-2.1-.4-.5-.5-.9 0-1.5 1.3-1.4 1.5-3.2 1.1-4.9-.7-3.2-3.7-4.8-6.9-4-2.9.7-4.7 3.8-3.9 6.7.8 3.1 3.6 4.9 6.7 4.1.8-.2 1.3-.2 1.6.6.5 1.1 1.5 1.5 2.9 1.1zm37.7-9.3c-.4-2.7-2.3-4-4.9-3.4-1.8.4-2.9 1.6-2.9 3.1s.9 2.4 2.8 3c.8.2 1.6.4 2.4.7.5.2.8.6.8 1.2 0 .5-.2.9-.7 1.2-1.4.8-3 .3-3.7-1.1-.4-.9-1.1-.5-1.6-.4-.5.1-.2.7-.1 1.1.4 1.1 1.2 1.9 2.3 2.2 1.1.3 2.1.3 3.2 0 1.6-.4 2.5-1.5 2.6-2.9 0-1.6-.6-2.6-2.4-3.1-.9-.3-1.9-.4-2.7-.8-1-.4-1.2-1.3-.5-2 .8-.9 3-.8 3.4.4.3 1.1 1.1.8 2 .8zm-50.6 0c0-2.8-2.9-4-5.2-3.3-1.5.5-2.5 1.5-2.6 2.9-.1 1.4.6 2.4 2.3 2.9.9.3 1.8.4 2.6.7 1.1.4 1.4 1.5.7 2.3-1 1-3.4.7-3.9-.6-.4-1-1.2-.9-1.7-.7-.7.3-.2.9 0 1.4.8 1.8 2.8 2.5 5.2 1.9 1.7-.4 2.7-1.5 2.7-2.9.1-1.7-.6-2.6-2.5-3.1-.9-.3-1.8-.4-2.6-.8-1-.4-1.2-1.3-.5-2 .8-.9 3-.8 3.4.4.4 1.2 1.2.9 2.1.9zm34.6 7.4c-1.3-3.4-2.7-6.8-4-10.2-.2-.6-.6-.6-1-.5-.5.1-1-.3-1.3.4-1.3 3.4-2.7 6.8-4 10.3.8-.2 1.8.7 2.1-.4.4-1.5 1.3-1.8 2.6-1.6.7.1 1.4 0 2 0 .6 0 1 .1 1 .7.3 1.5 1.3 1.5 2.6 1.3zm-11.2-6.6v-3.3c0-.7-.2-.9-.9-.9s-1 .2-1 .9c0 2 .2 4.1-.1 6.1-.2 1.5-1.1 2.3-2.5 2.3s-2.5-.9-2.5-2.4c-.1-2.1-.1-4.1-.1-6.2 0-.7-.4-.7-.9-.7s-1-.1-.9.7c0 2.2-.1 4.3 0 6.5s1.8 3.7 4 3.9c2.3.2 4-1 4.7-3 .4-1.4 0-2.7.2-3.9zm13.2 2.1c0 1.2.1 2.5 0 3.7-.1.9.4.8 1 .9.7 0 .9-.2.9-.9v-5.7c0-.8-.3-1.8.2-2.3.4-.4 1.4-.2 2.2-.1.8.1.7-.4.8-1 0-.6-.2-.8-.8-.8h-6.3c-.7 0-1 .1-1 .9s.4.9 1 .9h1.2c.7-.1 1 .2 1 .9-.2 1.1-.2 2.3-.2 3.5zm74.4-5.1c0 3.2 0 3.2 2.4 3h.1c1.7-.3 2.6-1.5 2.5-3.3-.1-1.8-1.5-2.7-4.3-2.4-1.7.2-.4 1.7-.8 2.4 0 0 .1.2.1.3zm18.9 0c-.1-.5-.2-1.1-.4-1.6-.2-.9-.9-1.4-1.7-1.4-.9 0-1.6.5-1.8 1.4-.4 1.1-.4 2.3.1 3.4.3.8.9 1.2 1.7 1.2.8 0 1.4-.4 1.8-1.2.1-.6.1-1.2.3-1.8zm23.1-1c-1-.5-1.8-.7-2.6.1-.8.8-.8 1.7-.5 2.7.3.8.9 1.2 1.8 1.2.6 0 1.3-.5 2-.1.3.2.3-.2.3-.5v-5.2c0-.3 0-.5-.4-.6-.4 0-.5.2-.5.6-.1.7-.1 1.2-.1 1.8zm-50.5.3v1.3c.1 1.6.9 2.4 2.3 2.4s2.4-.9 2.5-2.3c.1-1 0-1.9 0-2.9 0-.3 0-.6-.4-.7-.5 0-.5.3-.5.7 0 1 0 2-.1 3-.1.9-.7 1.4-1.5 1.3-.8-.1-1.3-.6-1.2-1.5v-2.9c0-.3 0-.6-.5-.6s-.5.2-.5.6c-.1.6-.1 1.1-.1 1.6zm-6.2 0V77c.1 1.7.9 2.5 2.4 2.5s2.4-.9 2.5-2.5v-2.6c0-.3.1-.7-.5-.8-.7 0-.5.5-.5.8 0 1 0 1.9-.1 2.9-.1.9-.7 1.4-1.6 1.3-.8-.1-1.2-.6-1.2-1.5v-3c0-.3-.1-.5-.5-.5s-.5.1-.5.5v1.7zm-87 28.2h-.2c-.1-.6-.3-1.1-.4-1.7-.1-.3-.2-.7-.7-.6-.5.2-.2.6-.1.8.2.8.5 1.7.8 2.5.1.3.2.7.7.6.5 0 .4-.4.6-.6.3-.6.2-1.3.7-1.8.2.6.4 1.2.5 1.8.1.3.1.6.5.6.5 0 .6-.3.7-.6.3-.9.5-1.7.8-2.6.1-.2.4-.5-.1-.6-.3-.1-.6 0-.7.4-.1.7-.4 1.3-.6 2.2-.3-.9-.4-1.6-.6-2.2-.1-.3-.2-.5-.6-.5-.3 0-.5.1-.6.5-.3.6-.5 1.2-.7 1.8zm112.5-24.6c.5 0 .9.2 1.2-.2 1-1.1 1.9-2.2 1.8-3.8-.1-1.2-.7-1.8-1.8-1.9-1-.1-1.8.3-2.1 1.3-.5 1.4.2 2.3 2.2 2.7 0 .8-.9 1.1-1.3 1.9zm26.6-3.8v-.7c-.1-.4.3-1-.3-1.2-.7-.3-1 .3-1.3.8-.5.7-1 1.4-1.4 2-.3.4-.9.9-.6 1.5.3.6.9.2 1.4.3.6.1 1.4-.2 1.3.9 0 .3.3.3.5.3.3 0 .4-.2.4-.4 0-.4 0-.8.5-.9.3-.1.2-.6.1-.6-1-.5-.4-1.4-.6-2zm-9.6 0v-.8c-.1-.4.3-.9-.3-1.1-.5-.1-.9.2-1.1.6-.5.8-1 1.5-1.6 2.2-.3.4-.9.9-.5 1.5.3.5.9.2 1.4.2.7 0 1.4-.1 1.2 1 0 .2.2.3.4.3.3 0 .5 0 .5-.4s0-.8.5-1c.2-.1.2-.6.1-.6-1.1-.4-.4-1.4-.6-1.9zm-5.7 2h.8c.8.1.9-.2.6-.9-.3-.9-.9-1.5-1.9-1.5-1 0-1.7.4-2 1.4-.3 1-.2 1.9.7 2.6.8.6 1.6.6 2.5.1.4-.2.9-.6.6-1-.2-.4-.7-.1-1 .2-.2.1-.4.3-.6.3-.5 0-1-.2-1.1-.7-.1-.7.6-.3.9-.4.1-.2.3-.1.5-.1zm24.6-1.5V75c0-1.4-.6-1.8-2-1.2-.2.1-.4.1-.4.4 0 .2.2.4.4.3 1-.1.9.5.9 1.1v1.9c0 .6 0 1.1-.8 1-.3 0-.5.1-.5.5 0 .5.4.3.6.3h2.4c.3 0 .6 0 .6-.4 0-.3-.2-.4-.4-.4-.9.1-.8-.5-.8-1.1v-1.3zm-14.9 0v-1.8c0-.4 0-.7-.5-.7-.6 0-1.3 0-1.8.5-.1.2.1.5.4.5 1.1-.1.9.6.9 1.2v1.6c0 .6.1 1.4-.9 1.2-.3 0-.4.2-.4.5 0 .4.3.3.5.3h2.6c.3 0 .5 0 .5-.4 0-.3-.1-.5-.4-.4-.9.1-.8-.5-.8-1.1-.1-.4-.1-.9-.1-1.4zM31.2 95.9c.1 0 .1 0 .2-.1.4.7.9 1.3 1.3 2 .2.3.4.3.7.3.4 0 .4-.4.4-.6v-2.6c0-.3 0-.7-.5-.7s-.4.4-.4.7v1.4c-.6-.6-1.1-1.2-1.5-1.9-.2-.3-.4-.3-.7-.3-.3 0-.3.3-.3.6v2.9c0 .2 0 .5.4.5.3 0 .4-.2.4-.5v-1.7zm9.5 2.2c-.4-1-.4-1-.1-2.4.1-.5 0-.9-.4-1.2-.7-.5-1.6-.4-2.3-.2-.6.2-.2.9-.3 1.4-.1.6 0 1.2 0 1.8 0 .3-.2.7.3.7s.3-.4.4-.7c.1-.3-.2-.7.3-.8.5-.1.6.2.8.6.3.4.4 1.1 1.3.8zM30 111.3v1.4c0 .2 0 .5.3.5.8 0 1.7.1 2.4-.4.8-.6.8-1.5.5-2.4-.3-.9-1.6-1.4-2.8-1.1-1 .3-.2 1.1-.5 1.6 0 .2.1.3.1.4zm-2.9-15.1c0 2 0 2 1.5 1.9.4 0 1.2.3 1.2-.3 0-.8-.8-.3-1.2-.4h-.2c-.3 0-.5 0-.5-.4s.2-.4.5-.5c.5-.1 1.4.4 1.3-.4 0-.7-.9-.2-1.4-.3-.3-.1-.5-.1-.4-.4 0-.3.3-.4.5-.4h1.2c.2 0 .4-.2.3-.4 0-.1-.2-.3-.3-.3-.8 0-1.6-.2-2.3.1-.6.2-.1 1-.2 1.5v.3zm11 15.1c0 2 0 2 1.3 2 .5 0 1.5.4 1.5-.4 0-.7-.9-.2-1.4-.3-.3-.1-.6 0-.6-.4 0-.3.1-.5.5-.5.5-.1 1.4.3 1.4-.3 0-.7-.9-.2-1.4-.4-.2-.1-.5 0-.5-.4 0-.3.2-.4.5-.4h1.1c.3 0 .5-.1.5-.4 0-.3-.2-.3-.5-.4-2.1-.4-2.4-.2-2.4 1.9zm-.4-5.5c-.5-1.4-.9-2.5-1.3-3.5-.1-.3-.2-.7-.7-.6-.4 0-.5.3-.6.6-.4 1.1-.8 2.1-1.2 3.2v.5c1.2-1.8 2.4-1.1 3.8-.2zm-.3 4.9v-.6c0-.4.1-.8-.5-.7-.5 0-.4.4-.4.7v1.6c0 .6-.2.9-.8.9-.6 0-.8-.4-.9-.9V110c0-.3.1-.6-.4-.6-.4 0-.4.3-.4.6v2c.1.8.6 1.3 1.4 1.3 1.5.1 2-.6 2-2.6zm-1.6-16.5h-1.1c-.2 0-.4.1-.4.3 0 .2 0 .5.3.4 1.1-.1.8.7.8 1.3v1.3c0 .3-.1.6.4.6.4 0 .4-.3.4-.6v-1.9c0-.4 0-.7.5-.7.3 0 .6-.1.5-.4 0-.4-.4-.3-.6-.3h-.8zm8.7.1c-1.3-.3-1.1 1.1-1.7 1.4-.7-.4-.5-1.8-1.7-1.4.4 1.2 1.5 2.1 1.4 3.5 0 .2.1.3.4.4.2 0 .4-.1.4-.3-.3-1.5.8-2.4 1.2-3.6zm84.9-17.8v2.4c0 .4 0 .6.5.6s.5-.3.5-.6v-4.6c0-.3 0-.5-.4-.5s-.5.2-.5.6c-.1.6-.1 1.3-.1 2.1zm-88.5 25.2h-1.2c-.2 0-.3.1-.3.3 0 .1.1.4.2.4 1.5 0 .8 1.1 1 1.8.1.5-.3 1.4.4 1.4.8 0 .3-.9.4-1.3.1-.2 0-.5 0-.7 0-.5-.2-1.2.8-1.1.2 0 .3-.2.3-.4s-.2-.3-.4-.3c-.5-.1-.9-.1-1.2-.1zm-2 2v-1.5c0-.3-.1-.5-.4-.5-.3 0-.4.2-.4.5v3c0 .3.1.5.4.5.3 0 .4-.2.4-.5v-1.5zM139 75.8c-.1-.4-.3-.7-.7-.6-.4 0-.6.3-.6.7 0 .4.3.6.6.6.4-.1.6-.3.7-.7zm0 3c-.1-.4-.3-.6-.7-.6-.5 0-.6.3-.6.7 0 .3.3.5.6.5.4 0 .6-.2.7-.6z" class="st0"/><path d="M99.2 43.6c-.5-1.5-3-1.9-4.4-1.5-2.3.6-3.8 2.6-3.9 5 0 .9-.1 1.8 0 2.8.1 1.1-.2 1.5-1.4 1.5-4.4-.1-8.8 0-13.2 0H40.7c-2.5 0-5.1-.2-7.6-.2H14.5c-1.5 0-1.5 0-1.5-1.6 0-2.3.1-4.6 0-6.8-.3-8.9-.2-17.8-.2-26.7 0-1.6 0-1.6 1.6-1.6 4.1.1 8.2.5 12.2.9 2.4.2 4.8.4 7.3.5 4.6.3 9.1.5 13.7.9 2.5.2 5.1.3 7.6.5 3.8.3 7.7.7 11.5.9 2.3.1 4.5.3 6.8.5l8.4.9c3 .3 6.1.6 9.1 1l8.7 1.2c3.6.5 7.1 1 10.7 1.7 6.7 1.2 13.3 2.6 19.9 4.1 9.3 2.1 18.5 4.7 27.6 7.7 7.6 2.5 15.1 5.1 22.5 8 .8.3.9.6.4 1.2-1.3 1.6-1 3.5-1 5.3 0 1.7 0 1.7-1.7 1.7-20.3 0-40.6.1-60.9-.1-5 0-10.1-.2-15.1-.2-.6 0-1-.1-1-.8.1-1.7-.1-3.4-.2-5.1 1.5 0 3-.1 4.5 0 .7 0 .9-.1 1-.9.1-1.1-.5-1.1-1.2-1-.9.1-1.2-.2-1.2-1.2.1-1.7 0-3.4 0-5 0-3.6 0-3.6-3.5-2.6-.7.2-1.2.4-1.1 1.2.1 1 .9.6 1.3.5.9 0 1.1.3 1 1.1-.1 1.3 0 2.6 0 4 0 1.9 0 1.9-1.8 2-.3.1-.5.2-.7.2zm-75.9-2.8c-.1-1.3-.2-2.7-.9-3.9-.7-1.3-1.8-1.9-3.2-1.9-1.4 0-2.5.6-3.1 1.9-1.3 2.6-1.3 5.3 0 7.8s4.8 2.5 6.3 0c.6-1.2.8-2.5.9-3.9zm181.9 20.9c3.9 0 7.8.2 11.8-.1 2.7-.2 4.9.7 7.2 2.1 3.7 2.2 7.5 4.2 11.2 6.4 3.6 2.1 7.2 4.2 10.8 6.4 3.6 2.2 7.3 4.3 10.9 6.5 2.8 1.7 5.6 3.6 8.5 5.3.9.6.8 1.4.8 2.2-.1 2.8 0 5.6.1 8.5.2 4.8.1 9.6.1 14.4 0 .7-.4 1-1.1.8-.6-.2-1.1-.1-1.7-.1-20.6 0-41.3 0-61.9-.1-3.7 0-7.3-.2-11-.2-.7 0-1-.2-.9-.9v-.4c-.2-16.4-.3-32.8-.2-49.2 0-1.7 0-1.7 1.6-1.7 4.5.1 9.1.1 13.8.1zM52.7 146.9H15.3c-1.6 0-1.6 0-1.6-1.6v-7.2c0-4.6-.4-9.1-.3-13.6 0-1 .3-1.4 1.3-1.3 22.4.6 44.8.1 67.3.3 2.8 0 5.6.1 8.4.2.9 0 1.1.3 1.1 1.1 0 2.9.1 5.8 0 8.6-.1 4 .3 8 .3 12 0 1.6 0 1.6-1.5 1.6-12.6-.1-25.1-.1-37.6-.1zm88 0H103c-1.3 0-1.5-.4-1.5-1.6.1-6.8 0-13.7 0-20.5 0-1 .3-1.3 1.3-1.3 14.7 0 29.4-.2 44.1.1 10.5.2 21 0 31.5.1 1.1 0 1.3.3 1.3 1.3v20.4c0 1-.3 1.4-1.3 1.3-12.5.2-25.1.2-37.7.2zm92.6.2h-31.2c-3.1 0-6.3-.1-9.4-.2-.7 0-1.4.2-2.1.1-.6-.1-.8-.4-.8-.9v-21.2c0-.7.2-.9.9-.9 8 0 15.9-.1 23.9.1 2.3 0 4.6.2 6.9.2h43.2c1.7 0 1.7 0 1.7 1.6v20.2c0 1-.3 1.3-1.3 1.3-10.6-.3-21.2-.3-31.8-.3zm82.3 0h-37.7c-1.6 0-1.6 0-1.6-1.7v-19.8c0-1.6 0-1.4 1.6-1.4 1.5-.1 2.9.1 4.4.1h47.5c1.7 0 3.2.6 4.7 1.2 6 2.6 12.2 4.7 18.6 6.2 1.4.3 1.6 1.1 1.7 2.1.1 4 0 8 .1 11.9 0 1.1-.3 1.4-1.4 1.4h-37.9zm88.8 10.1h38.4c1.1 0 1.5.3 1.5 1.4-.1 5.4-.1 10.8 0 16.2 0 1-.2 1.4-1.3 1.4h-76.9c-1 0-1.2-.3-1.3-1.3-.5-5.6 0-11.2-.2-16.8 0-1.1.7-.9 1.3-.9h38.5zm-90-.2h36.2c1.1 0 2.3.2 3.4.2.6 0 .8.3.8.8v17.4c0 .6-.2.8-.8.8h-.8c-16 0-32 .2-48-.1-9.2-.1-18.4 0-27.6-.1-1 0-1.3-.4-1.3-1.4v-16.4c0-1.1.6-1.2 1.4-1.2h36.7zm-261.8-.3h37.7c1.1 0 1.4.3 1.4 1.4-.1 5.5 0 11 0 16.6 0 1-.3 1.3-1.3 1.3H15.3c-1.1 0-1.5-.4-1.4-1.5.1-1 0-2 0-3 .2-4.5-.3-8.9-.3-13.4 0-1.1.4-1.4 1.4-1.4h37.6zm88.2 19.2h-37.6c-1.1 0-1.5-.3-1.5-1.5.1-2.9.1-5.8 0-8.6 0-2.6-.1-5.3-.2-7.9 0-.9.3-1.3 1.2-1.3h41c2.6 0 5.3-.2 7.9 0 3.5.2 7 .2 10.5.2h16.3c1.1 0 1.3.3 1.3 1.4 0 5.4-.1 10.9 0 16.3 0 1.1-.3 1.3-1.3 1.3-12.5.1-25.1.1-37.6.1zm87.3-18.9h36.7c1.6 0 1.6 0 1.6 1.6v16.1c0 1-.3 1.3-1.3 1.3h-74c-1.1 0-1.3-.3-1.3-1.4 0-5.4.1-10.9 0-16.3 0-1.1.3-1.3 1.3-1.3h37zm309 19.2c-.6 0-1.2-.1-1.8-.1H456c-1.6 0-1.6 0-1.6-1.6v-16.1c0-1 .2-1.3 1.2-1.3h54.6c1.3 0 2.4.5 3.6 1 3.7 1.6 7.7 2.4 11.3 4.3 2.9 1.5 5.6 3.1 8.5 4.6 1.1.6 2.2 1.4 3.6 1.6.1.1.2.2.4.3 1 .6 2.3.9 3 2.1 1 1.8.3 4.1-1.8 5.1-.7-.3-1.2-.3-1.7.1zm.6-4.2c.5 0 .8-.3.9-.8 0-.5-.2-.8-.7-.9-.6 0-.9.2-.9.8-.1.6.2.9.7.9zm-.1 1c-.4.1-.7.3-.7.9 0 .5.3.8.8.8.6 0 .9-.3.8-.9 0-.5-.3-.7-.9-.8zm-118.7-25.6c-7.8 0-15.7.1-23.5 0-9.9-.2-19.8-.2-29.7-.2-.8 0-1.2-.1-1.2-1.1.1-3.6 0-7.2 0-10.8 0-1 .4-1.2 1.2-1 3.8.6 7.7 1.1 11.6 1.4 3.5.3 7 .3 10.5.5 4.1.2 8.2.6 12.2.9 3.1.2 6.2.4 9.3.7 4.3.5 8.6.7 12.9 1.4 4 .6 8 1 12 1.5 2.5.3 5 .7 7.5 1.1.7.1 1.6-.3 2.2.4.6.8.3 1.7.3 2.6 0 3 .4 2.6-2.6 2.6h-22.7z" class="st1"/><path d="M272 54.7h264.7c.8 0 2-.2 2.1 1 0 1.3-1.2 1.1-2.1 1.1H272v-2.1z" class="st2"/><path d="M179.8 69.8c-1.2-.9-2.5-1.2-4-1.2h-73.2c-.5 0-1 0-1.6-.1v-6.2c0-.8.3-1.2 1.1-1.1 3.2.1 6.4-.1 9.6.1 1.6.1 3.3.1 4.9.1h61.3c1.8 0 1.8 0 1.8 1.8.1 2.2.1 4.4.1 6.6zm-88.6-1.4H15.5c-.8 0-1.7 0-2.5.1 0-2.2 0-4.3-.1-6.5 0-.8.4-1 1.1-1h15.8c2.4 0 4.9 0 7.3.1 9.4.3 18.7.1 28 .1 8.1.1 16.2 0 24.4 0 1.6 0 1.6 0 1.6 1.7.1 1.8.1 3.7.1 5.5z" class="st1"/><path d="M269.8 56.9c-.5 0-1-.1-1.4-.1H10.6c-.5 0-1 0-1.4-.1-.5-.1-.9-.4-.9-1s.4-.9.9-1c.6-.1 1.2-.1 1.8-.1h258.8v2.3z" class="st2"/><path d="M269.8 56.9c0-.7-.1-1.5-.1-2.2V41.2c0-.7-.5-.7-.9-.9-2.6-1-4.2-2.8-4.5-5.6-.3-2.6.7-4.8 2.9-6.3 2.3-1.6 4.8-1.7 7.2-.2 2.4 1.4 3.4 3.7 3.2 6.4-.3 2.8-1.8 4.8-4.5 5.6-1.2.4-1.4.9-1.4 2 .1 4.2.1 8.3.1 12.5v2.1c0 .9-.1 1.8-.1 2.6l.3 116v1.4c-.1.5-.4.9-1 .9s-.9-.4-.9-.9v-1.3c-.1-30-.1-60-.2-90 0-9.4 0-19-.1-28.6zm4.8-22.8c0-2-1.5-3.6-3.5-3.6-1.9 0-3.7 1.6-3.7 3.5 0 2 1.6 3.7 3.6 3.7 2-.1 3.6-1.7 3.6-3.6z" class="st3"/><path d="M175.8 114.9c-.1-.2-.4-.4-.4-.6.2-1.4-.7-1.3-1.7-1.4-24.9-.2-49.7-.1-74.6-.2-18.3-.1-36.7-.1-55-.2H44c-.6-.1-1.6.2-1.5-.8 0-1 .9-.8 1.6-.8 10.7 0 21.4.1 32 .1l97.6.3c.9 0 1.8.2 1.7-1.3 0-.9.9-.9 1.6-.7 1.6.6 3.2 1.1 4.8 1.7.6.6.7 1.3-.2 1.7l-4.8 2.1c-.2.3-.6.2-1 .1z" class="st2"/><path d="M262.3 21.1v-7.8c0-.9.3-1.1 1.2-1.1.9 0 1 .3 1 1.1v10c0 .5.4 1.3-.4 1.4-.8.1-1.7.3-2.3-.7-1.4-2.3-3-4.5-4.5-6.8-.2-.3-.5-.7-.9-1.3v7.7c0 .9-.2 1.1-1.1 1.2-.9 0-1.1-.3-1.1-1.2.1-3.4 0-6.7 0-10.1 0-.4-.3-1.1.3-1.2.8-.1 1.6-.4 2.2.6 1.6 2.4 3.2 4.8 4.9 7.3.2.2.4.4.7.9zm18.3 1c.7-2.1 1.3-3.9 1.8-5.7.2-.7.6-.7 1.2-.8.6 0 1 .1 1.2.8.5 1.8 1.1 3.6 1.8 5.7.6-1.8 1.1-3.3 1.5-4.8.6-1.8.6-1.8 2.6-1.6-1 2.9-2 5.7-3 8.6-.3.8-.9.3-1.4.4-.5.1-.8-.1-.9-.6-.5-1.7-1.1-3.5-1.8-5.6-.6 1.9-1.2 3.4-1.6 4.9-.3 1.1-.8 1.4-1.8 1.3-.4 0-.7-.2-.8-.5-1-2.8-1.9-5.6-2.9-8.4 2-.4 2-.4 2.6 1.6.5 1.4 1 2.9 1.5 4.7z" class="st4"/><path d="M455.1 39.8c2.2-.8 4-.3 4.8 1.5.9 2.1.2 4.5-1.7 5.4-2 .9-4.4.3-5.3-1.4-.2-.4-.8-1.2-.2-1.4.6-.2 1.6-.6 2.2.3.6.9 1.3 1 2.2.7.8-.3 1-1.1.9-1.9-.1-1.3-1.3-1.9-2.4-1.4-.2.1-.4.3-.6.4-.6.5-1.4.4-2 .2-.5-.2-.1-.9 0-1.3.2-1.4.4-2.8.5-4.2.1-.7.3-1 1-.9 1.5.1 3 .1 4.4 0 1 0 .7.6.7 1.1 0 .5.1 1.1-.7 1-.6-.1-1.3 0-1.9 0-1.9-.1-1.9-.1-1.9 1.9zM191 43.2c1.3 0 2.4.1 3.4 0 .9-.1 1 .4 1 1.1 0 .7-.1 1.1-1 1-1.8-.1-3.6 0-5.4 0-.4 0-1.1.3-1.3-.3-.2-.6-.3-1.4.4-2 1.3-1.2 2.5-2.4 3.7-3.6.4-.4.7-.7.9-1.2.4-.9 0-1.8-.8-2-1-.3-1.9.1-2 1.1-.1 1.5-1.2.9-1.9.8-.9-.1-.5-.9-.4-1.3.3-1.5 1.4-2.6 2.8-2.8 1.6-.2 3.1 0 4.1 1.5.8 1.2.7 3-.2 4.3-.8 1.3-2 2.1-3.3 3.4zm355.1-7.5c-1.1 1.4-2.2 2.5-2.9 3.8.2.3.5.1.7.1 2.1-.1 3.4.9 3.8 2.9.4 1.8-.7 3.7-2.4 4.3-1.5.5-2.9.4-4.2-.7-1.4-1.2-1.6-2.7-1.2-4.4.5-2.3 1.8-4.1 3.4-5.7.6-.7 1.6-.2 2.8-.3zm-.8 7.5c0-1.1-.7-1.8-1.6-1.9-.9 0-1.7.8-1.7 1.9 0 1 .8 1.8 1.7 1.8.9 0 1.6-.8 1.6-1.8zm-175.1-5.9v2.2c0 .5-.2 1.1.7 1.2.5 0 .3.6.3.9 0 .4.3 1-.3 1-1.1.1-.8.8-.8 1.4.1.9-.3 1-1 1s-1.2 0-1-.9c.2-1.1-.3-1.5-1.4-1.4-.9.1-1.8 0-2.6 0-1.3 0-1.8-.8-1.1-1.9 1.4-2.3 3-4.5 4.5-6.6.5-.7 1.5-.4 2.2-.3.6.1.3.8.3 1.2.2.7.2 1.5.2 2.2zm-4.7 3.2c2.7.1 2.7.1 2.7-2.2V37c-.1 0-.1-.1-.2-.1-.9 1.2-1.7 2.4-2.5 3.6z" class="st3"/><path d="M266.6 20.2c0-2.8 2-4.8 4.7-4.8 2.6 0 4.7 2.1 4.7 4.7 0 2.7-2 4.8-4.7 4.8-2.7.1-4.7-2-4.7-4.7zm7.3 0c0-1.6-1.1-2.9-2.5-2.9-1.5 0-2.7 1.3-2.7 2.9 0 1.6 1.1 2.8 2.6 2.8 1.5.1 2.6-1.1 2.6-2.8z" class="st4"/><path d="M99.2 43.6c.2-.1.4-.1.6-.1 1.8-.1 1.8-.1 1.8-2v-4c0-.8-.2-1.1-1-1.1-.4 0-1.2.5-1.3-.5-.1-.9.4-1 1.1-1.2 3.5-1 3.5-1 3.5 2.6 0 1.7.1 3.4 0 5 0 1 .2 1.3 1.2 1.2.7-.1 1.3-.1 1.2 1 0 .8-.3.9-1 .9h-4.5c-1.5.3-1.7-.6-1.6-1.8z" class="st3"/><path d="M11.3 95.6c1.2-.7 2.3-1.4 3.5-2.1 1.1-.6 2-.1 2 1.1 0 .8.3.9 1 .9h6.8c.7 0 1.7-.3 1.6.8 0 1-1 .8-1.7.8-2.2 0-4.4 0-6.6-.1-.7 0-1.2 0-1.2 1s-.9 1.3-1.8.8c-1.2-.7-2.4-1.5-3.5-2.2 0-.3-.1-.6-.1-.9v-.1zm261.9 0c1-.6 2-1.1 3-1.7 1.3-.7 2.1-.3 2.2 1.1 0 .7.3.8.9.8h7.3c.6 0 1.3 0 1.3.8s-.7.8-1.3.8c-2.4 0-4.7 0-7.1-.1-.7 0-1.1 0-1.1.9 0 1-.9 1.4-1.9.8-1.1-.6-2.2-1.3-3.3-2-.4-.4-.4-.9 0-1.4z" class="st2"/><path d="M472.4 147.1c-.6.4-1 .3-1.4.3h-15.3c-1.2 0-1.6-.3-1.6-1.6.1-2.1 0-2.2 2.1-1.8 4.8.8 9.6 1.5 14.4 2.7.5.1 1 .2 1.8.4zM199.7 51.8c-2.3 0-4.5.1-6.8 0h-2.4c-.6 0-.9-.2-.9-.8v-3.4c0-.5.2-.6.7-.4l9.6 4.2c-.1.2-.1.3-.2.4z" class="st1"/><path d="M360.7 50.1v2.4c0 .7-.4 1.1-1 1.1s-.9-.4-.9-1c-.1-1.6-.1-3.3-.2-4.9 0-.6.3-1.2 1-1.2.8 0 1 .6 1.1 1.2v2.4zm177.9 0v2.3c0 .7-.2 1.2-1 1.2-.7 0-1-.5-1-1.1-.1-1.6-.1-3.1-.2-4.7 0-.7.2-1.4 1-1.4.9 0 1.1.7 1.1 1.4.1.8 0 1.5.1 2.3zM183.4 50v-2.4c0-.6.3-1.1 1-1.2.7 0 1 .5 1.1 1.1.1 1.7.1 3.4.1 5.1 0 .6-.4 1-1 1s-.9-.4-1-1c-.1-.9-.1-1.7-.2-2.6zm-86.2.4v2.3c0 .6-.3 1.1-.9 1.1-.7 0-1-.4-1-1-.1-1.6-.1-3.2-.2-4.8 0-.7.2-1.3 1-1.3.7 0 1 .6 1 1.2.1.8.1 1.7.1 2.5zm-86.6 0v2.4c0 .7-.4 1.1-1.1 1-.6 0-.9-.4-.9-1-.1-1.6-.1-3.2-.2-4.8 0-.7.2-1.3 1-1.3s1 .7 1.1 1.3c.1.8 0 1.6.1 2.4-.1 0 0 0 0 0zm438.9 0v2.3c0 .7-.3 1.2-1 1.2s-1-.5-1-1.1c-.1-1.6-.1-3.1-.1-4.7 0-.7.2-1.3 1-1.4.8 0 1.1.6 1.1 1.3v2.4zm-.1 97.4c0 .5-.3.9-.8.9s-.8-.3-.8-.8.3-.8.8-.9c.5 0 .7.3.8.8z" class="st3"/><path d="M360.5 121.9c-.1.6-.4.9-.9.8-.5 0-.8-.3-.8-.8 0-.6.4-.9.9-.8.6 0 .8.4.8.8z" class="st5"/><path d="M10.4 162.2c0 .5-.3.9-.8.9s-.8-.3-.8-.8.3-.8.8-.8c.5-.1.8.2.8.7zm86.4.2c0 .5-.3.9-.8.9s-.8-.2-.9-.8c0-.5.3-.8.8-.9.6 0 .8.3.9.8z" class="st3"/><path d="M10.4 96c0 .5-.3.8-.8.8s-.8-.3-.9-.8c0-.6.3-.9.9-.9.5 0 .8.4.8.9zm527.2 1.1c-.5 0-.9-.3-.9-.8 0-.6.3-.9.9-.9.5 0 .8.3.8.8s-.3.8-.8.9zm.1 37.4c-.5 0-.9-.2-.9-.8 0-.5.2-.9.7-.9.6-.1.9.2.9.8.1.5-.2.8-.7.9zm-352.5-.8c-.1.5-.3.8-.8.8s-.8-.2-.9-.8c0-.6.3-.9.9-.9.5 0 .8.3.8.9zm-89.1-.9c.5.1.8.3.8.8 0 .6-.4.9-.9.8-.5 0-.8-.4-.7-.9-.1-.4.3-.7.8-.7zm352.6 1.4c-.5 0-.8-.2-.9-.8 0-.5.2-.9.7-.9.6-.1.9.3.9.8.1.6-.2.9-.7.9z" class="st6"/><path d="M359.8 134.2c-.5-.1-.8-.3-.8-.9 0-.5.3-.8.8-.8.6 0 .9.4.8.9 0 .6-.3.8-.8.8z" class="st5"/><path d="M359.8 161.4c.5.1.9.4.8.9 0 .6-.4.9-.9.8-.5 0-.8-.4-.7-.9 0-.6.3-.8.8-.8z" class="st6"/><path d="M185.2 162.5c-.1.5-.4.8-.9.8s-.8-.3-.8-.9c0-.5.3-.8.9-.8.5.1.7.4.8.9z" class="st3"/><path d="M184.3 95.4c.5.1.8.4.8.9s-.3.8-.8.8c-.6 0-.9-.3-.8-.9 0-.6.3-.8.8-.8zm264.2-.3c.5.1.8.3.8.8s-.3.8-.8.8c-.6 0-.9-.3-.9-.9.1-.4.5-.6.9-.7z" class="st6"/><path d="M8.8 133.4c.1-.5.3-.8.8-.8.6 0 .9.4.8.9 0 .5-.4.8-.9.7-.4 0-.7-.3-.7-.8z" class="st5"/><path d="M537.6 161.6c.5 0 .8.3.9.8 0 .5-.2.8-.8.9-.5 0-.8-.2-.9-.8 0-.5.3-.8.8-.9z" class="st3"/><path d="M448.8 177.3c-.6-.1-.9-.4-.9-.9 0-.6.4-.9.9-.8.5 0 .8.4.7.9.1.6-.3.8-.7.8z" class="st6"/><path d="M448.6 163c-.5 0-.8-.2-.9-.8 0-.5.2-.8.8-.9.5 0 .8.3.9.8 0 .6-.3.9-.8.9z" class="st3"/><path d="M9.6 148.7c-.5-.1-.8-.4-.8-.9s.3-.8.8-.8c.6 0 .9.4.8.9 0 .5-.3.8-.8.8z" class="st6"/><path d="M448.5 108.1c-.5-.1-.8-.3-.8-.8 0-.6.3-.9.9-.9.5 0 .8.4.8.9-.1.5-.4.7-.9.8zm-264.2-1.5c.6.1.8.4.8.9s-.3.8-.8.8c-.6 0-.9-.3-.8-.9-.1-.5.3-.7.8-.8zm354.1.8c0 .6-.3.9-.8.9s-.8-.3-.9-.8c0-.6.3-.9.9-.9.5 0 .7.4.8.8zM9.5 122.7c-.5-.1-.8-.3-.8-.8 0-.6.4-.9.9-.9s.8.4.8.9c0 .6-.4.8-.9.8zm439-1.7c.5 0 .8.3.9.8 0 .5-.3.8-.8.9-.6 0-.9-.3-.9-.9 0-.5.3-.7.8-.8zm-351.7 1.2c-.1.5-.4.8-.9.8s-.8-.3-.8-.8c0-.6.4-.9.9-.8.5-.1.8.3.8.8zM9.7 60.7c.5.1.8.3.8.8 0 .6-.4.9-.9.8-.5 0-.8-.4-.8-.9s.3-.7.9-.7zm351 .8c-.1.5-.3.8-.8.8-.6 0-.9-.3-.9-.9 0-.5.3-.8.9-.8.4.1.7.4.8.9zm88.8 0c-.1.5-.3.8-.9.8-.6 0-.9-.4-.8-.9 0-.5.4-.8.9-.7.5 0 .7.3.8.8zm-352.6.3c-.1.5-.4.8-.9.8-.6 0-.9-.4-.8-1 0-.5.4-.8.9-.7.5.1.8.4.8.9zm88.3 0c-.1.5-.4.8-.9.8-.6 0-.9-.4-.8-1 0-.5.4-.8.9-.7.5.1.8.4.8.9zm353.3-.1c-.1.5-.3.8-.8.8-.6 0-.9-.3-.9-.9 0-.5.3-.8.9-.8.5.1.8.4.8.9zm-.1 60.4c0 .5-.3.8-.8.9-.5 0-.9-.2-.9-.7-.1-.6.3-.9.8-.9.5-.1.8.2.9.7z" class="st5"/><path d="M359.8 138.4c.5.1.8.4.8.9s-.4.8-.9.8-.8-.4-.8-.9c.1-.6.4-.8.9-.8zm.8 9.4c-.1.6-.3.9-.9.9-.5 0-.8-.3-.8-.8s.3-.8.8-.8c.6-.1.9.3.9.7z" class="st3"/><path d="M10.5 156.3c0 .5-.3.8-.8.9-.6 0-.9-.3-.9-.9 0-.5.3-.8.8-.8.6 0 .9.2.9.8zm349.3-.9c.5.1.9.3.9.8 0 .6-.4.9-.9.8-.5 0-.8-.4-.8-.9 0-.4.4-.6.8-.7zM9.7 68c-.5 0-.8-.3-.9-.8 0-.5.2-.9.7-.9.6-.1.9.3.9.8.1.5-.2.8-.7.9zm350.1-1.7c.5.1.8.3.8.8 0 .6-.4.9-.9.8-.5 0-.8-.4-.7-.9 0-.4.3-.7.8-.7zm89.7.8c0 .5-.3.8-.8.9-.5 0-.9-.2-.9-.8 0-.6.3-.9.8-.9s.8.3.9.8zm-.9 88.3c.5 0 .8.3.8.8 0 .6-.3.9-.9.9-.5 0-.8-.4-.8-.9.1-.5.4-.7.9-.8zm-352.6.3c.5 0 .9.2.9.8 0 .6-.3.9-.8.9s-.8-.3-.8-.8c-.1-.6.2-.9.7-.9zm88.4 1.7c-.5-.1-.8-.4-.8-.9s.3-.8.8-.8c.6 0 .9.3.9.9-.1.5-.5.7-.9.8zm353.2-1.7c.5 0 .9.2.9.8 0 .6-.3.9-.8.9s-.8-.3-.8-.8c-.1-.6.2-.9.7-.9zM9.6 69.2c.5 0 .9.3.9.8.1.6-.3.9-.8.9s-.8-.3-.8-.8c-.1-.6.2-.9.7-.9zm439.9.8c-.1.6-.4.8-.9.8s-.8-.3-.8-.8c0-.6.3-.9.9-.9.5.1.7.4.8.9zm-265.2-.6c.5 0 .8.3.9.8 0 .6-.3.9-.9.9-.5 0-.8-.3-.8-.8 0-.6.3-.9.8-.9zm353.3 0c.6.1.9.4.8.9 0 .6-.4.9-1 .8-.5 0-.8-.4-.7-.9.2-.5.5-.8.9-.8z" class="st5"/><path d="M10.5 72.8c-.1.5-.3.8-.8.8-.6 0-.9-.3-.8-.9 0-.5.4-.8.9-.7.4 0 .7.3.7.8z" class="st6"/><path d="M10.5 75.8c0 .5-.3.8-.8.8s-.8-.2-.9-.8c0-.6.3-.9.8-.9.6 0 .8.4.9.9zm437.2 0c.1-.5.3-.9.9-.9.6 0 .9.4.8.9 0 .5-.4.8-.9.7-.5.1-.7-.3-.8-.7zm-262.5.3c-.1.5-.4.8-.9.8s-.8-.3-.8-.8c0-.6.3-.9.9-.9.5 0 .8.3.8.9zm352.3-.9c.6 0 .9.3.9.8 0 .6-.3.9-.9.9-.5 0-.8-.3-.8-.8.1-.6.4-.9.8-.9zm-527 12.1c0 .5-.3.8-.8.8s-.8-.3-.9-.8c0-.6.3-.9.9-.9.5.1.8.4.8.9zm173.8-.6c.5 0 .9.3.9.8.1.6-.3.9-.9.9-.5 0-.8-.3-.8-.8s.3-.8.8-.9zm354.2.9c0 .5-.3.8-.8.8s-.8-.3-.9-.8c0-.6.3-.9.9-.9.5 0 .8.3.8.9zm-90-1.2c.6 0 .9.3.9.8 0 .6-.3.9-.9.9-.5 0-.8-.3-.8-.8.1-.5.4-.8.8-.9z" class="st5"/><path d="M9.6 108.1c-.5 0-.9-.3-.9-.8 0-.6.3-.9.9-.9.5 0 .8.3.8.8 0 .6-.3.8-.8.9zm.2 67.5c.6 0 .9.3.9.8s-.3.8-.8.9c-.6 0-.9-.3-.9-.9 0-.5.3-.7.8-.8zm174.7.3c.5 0 .8.2.9.8 0 .5-.2.9-.7.9-.6.1-.9-.3-.9-.8-.1-.6.2-.9.7-.9zm-88.3 1.7c-.5-.1-.8-.4-.8-.8 0-.6.3-.9.9-.8.5 0 .8.4.8.9-.1.4-.4.6-.9.7z" class="st6"/><path d="M96.1 148.9c-.5 0-.8-.3-.8-.8s.2-.8.8-.9c.5 0 .8.3.9.8-.1.6-.4.8-.9.9z" class="st3"/><path d="M10.5 136.2c0 .5-.3.9-.8.9s-.8-.2-.9-.7c0-.6.2-.9.8-.9.5 0 .8.3.9.7zm438.8-20c0 .5-.3.8-.8.8s-.8-.3-.8-.8c0-.6.3-.9.9-.9.4 0 .7.4.7.9zM9.7 65.2c-.6-.1-.9-.3-.9-.8 0-.6.3-.9.9-.9.5 0 .8.3.8.8-.1.6-.4.8-.8.9zm350.9-.9c0 .6-.3.9-.8.9-.6 0-.9-.3-.9-.9 0-.5.3-.8.8-.8.6 0 .8.3.9.8zm88-.8c.5 0 .8.3.8.8s-.3.8-.8.9c-.6 0-.9-.3-.9-.9 0-.5.4-.7.9-.8zm-263.4 1.1c0 .5-.3.8-.8.9-.6 0-.9-.3-.9-.9 0-.5.4-.8.9-.8.4 0 .7.3.8.8zm353.2-.1c-.1.6-.3.9-.8.9-.6 0-.9-.3-.9-.9 0-.5.4-.8.9-.8.5.1.8.4.8.8zm-354.1 51c.5.1.8.4.8.9s-.3.8-.8.8c-.6 0-.9-.3-.8-.9-.1-.5.3-.7.8-.8zm353.2 1.7c-.5-.1-.8-.3-.8-.8 0-.6.4-.9.9-.8.5 0 .8.4.8.9-.1.4-.4.7-.9.7zm-528 .9c.6 0 .9.3.9.8 0 .6-.3.9-.9.9-.5 0-.8-.3-.8-.8.1-.6.4-.8.8-.9zm351.1.9c-.1.5-.4.8-.9.8s-.8-.3-.8-.8c0-.6.3-.9.9-.8.6-.1.8.3.8.8zm88.9 17.3c-.1.5-.4.8-.9.8s-.8-.3-.8-.8c0-.6.3-.9.9-.9.5.1.7.4.8.9zm-89.7-.9c.5.1.9.3.9.8 0 .6-.4.9-.9.8-.5 0-.8-.4-.7-.9-.1-.4.2-.6.7-.7zm-262.9 1.2c-.1.5-.3.8-.8.8s-.8-.3-.8-.8c0-.6.3-.9.9-.9.4 0 .6.4.7.9zm-1-72.8c.5 0 .9.3.9.8s-.3.9-.8.9c-.6 0-.9-.3-.9-.9 0-.5.4-.8.8-.8zm441.2 112.4c.5-.5 1-.5 1.6 0 .1.7 0 1.4-.8 1.3-.9 0-1-.6-.8-1.3zm.5-40.5c.5 0 .9.3.9.8.1.6-.3.9-.8.9s-.8-.3-.8-.8c-.1-.5.2-.8.7-.9z" class="st6"/><path d="M185.2 148.1c-.1.5-.4.8-.9.8s-.8-.4-.8-.9.3-.8.9-.8c.5.1.8.4.8.9z" class="st3"/><path d="M185.2 136.6c-.1.5-.3.8-.8.8s-.8-.3-.8-.8c0-.6.3-.9.9-.9.4 0 .7.4.7.9zM360 177.3c-.5 0-.8-.3-.9-.8 0-.6.3-.9.9-.9.5 0 .8.3.8.8 0 .6-.3.9-.8.9z" class="st6"/><path d="M538.5 148.1c-.1.5-.3.8-.8.8s-.8-.3-.8-.8.3-.8.8-.8c.4 0 .7.3.8.8z" class="st3"/><path d="M538.6 165.2c-.1.5-.3.8-.9.8-.6 0-.9-.4-.8-.9 0-.5.4-.8.9-.7.6 0 .8.3.8.8zm-353.3-.1c0 .5-.3.9-.8.9-.6 0-.9-.3-.9-.9 0-.5.3-.8.8-.8.6 0 .9.3.9.8zm-88.3 0c0 .5-.3.9-.8.9-.6 0-.9-.3-.9-.9 0-.5.3-.8.8-.8.6 0 .9.3.9.8z" class="st6"/><path d="M449.3 90.1c-.1.5-.3.8-.9.8-.6 0-.9-.4-.8-.9 0-.5.4-.8.9-.7.6 0 .8.3.8.8z" class="st5"/><path d="M448.8 164.1c.5.1.8.3.8.8s-.3.8-.8.8c-.6 0-.9-.3-.9-.9 0-.4.4-.7.9-.7zm-353-95.8c-.4-.3-.7-.6-.6-1.1.1-.4.3-.6.7-.7.4 0 .7.2.9.5.3.6-.1 1-.6 1.2-.1.1-.3.1-.4.1zm88.6-1.8c.5.1.8.4.8.9 0 .6-.4.9-.9.8-.5 0-.8-.4-.7-.9 0-.5.3-.7.8-.8zm353.3 1.7c-.5 0-.8-.2-.9-.8 0-.5.2-.9.7-.9.6 0 .9.3.9.8.1.6-.2.9-.7.9z" class="st6"/><path d="M359.9 165.8c-.5-.1-.8-.3-.8-.8 0-.6.4-.9.9-.8.5 0 .8.4.8.9-.1.4-.4.7-.9.7z" class="st5"/><path d="M9.7 165.8c-.5-.1-.8-.3-.8-.9 0-.6.4-.9.9-.8.5 0 .8.4.7.9.1.5-.2.8-.8.8zm174.6-91.9c-.5-.1-.8-.3-.8-.9 0-.5.3-.8.8-.8.6 0 .9.3.9.9 0 .4-.4.7-.9.8zm353.3 0c-.5-.1-.8-.4-.8-.9s.3-.8.8-.8c.6 0 .9.3.8.9 0 .5-.3.7-.8.8z" class="st6"/><path d="M184.2 109.7c.5 0 .8.3.9.8 0 .5-.2.9-.7.9-.6 0-.9-.2-.9-.8-.1-.5.2-.9.7-.9zm353.5 1.7c-.6 0-.9-.3-.9-.8 0-.6.3-.9.8-.9s.8.3.8.8-.3.8-.7.9z" class="st5"/><path d="M448.5 113.9c-.5-.1-.8-.3-.9-.8 0-.6.3-.9.9-.9.5 0 .8.3.8.8 0 .6-.3.9-.8.9zm-263.3 5.3c-.1.5-.3.8-.8.9-.5 0-.8-.3-.8-.8 0-.6.3-.9.9-.9.4-.1.6.3.7.8zm353.3-.1c-.1.5-.3.8-.8.9-.5 0-.8-.3-.9-.8 0-.6.3-.9.8-.9.6 0 .8.4.9.8zm-89.9-47.2c.6.1.9.3.9.8 0 .6-.4.9-.9.8-.5 0-.8-.4-.7-.9-.1-.4.2-.6.7-.7zm-264.3 40.6c.5.1.8.3.8.9 0 .5-.3.8-.8.8-.6 0-.9-.4-.8-.9 0-.6.3-.8.8-.8z" class="st6"/><path d="M9.6 89.2c.5.1.8.4.8.9s-.3.8-.8.8c-.6 0-.9-.4-.8-.9-.1-.5.3-.7.8-.8z" class="st5"/><path d="M96.9 119.2c-.1.5-.3.8-.9.8-.5 0-.8-.3-.8-.8 0-.6.3-.9.9-.8.5 0 .7.3.8.8zm88.2 3c0 .5-.3.8-.9.8-.5 0-.8-.4-.8-.9s.3-.8.8-.8c.6 0 .9.4.9.9zm-174.7-9.1c0 .5-.3.8-.8.9-.6 0-.9-.3-.9-.9 0-.5.3-.8.8-.8.6 0 .9.3.9.8zm528 .2c0 .5-.3.8-.8.8-.6 0-.9-.4-.9-.9s.4-.8.9-.8c.5.1.8.4.8.9z" class="st6"/><path d="M537.5 91.2c-.5-.1-.8-.4-.8-.9 0-.6.4-.9.9-.8.5 0 .8.4.7.9 0 .5-.3.8-.8.8z" class="st5"/><path d="M448.6 119.8c-.5 0-.8-.3-.8-.8s.3-.8.8-.8c.6 0 .9.3.9.9-.1.4-.4.7-.9.7z" class="st6"/><path d="M185.1 90.3c0 .5-.3.9-.8.9-.6 0-.9-.3-.9-.9 0-.5.4-.8.9-.8s.8.3.8.8zM9.5 57.6c.5 0 .8.3.9.8 0 .5-.2.9-.7.9-.6 0-.9-.3-.9-.8-.1-.6.2-.9.7-.9zm351.1.8c-.1.5-.3.9-.8.9-.6 0-.9-.3-.9-.9 0-.5.4-.8.9-.8s.7.4.8.8zm88.8 0c-.1.5-.3.9-.8.9-.6 0-.9-.3-.9-.9 0-.5.3-.8.9-.8.5 0 .7.3.8.8zM96 59.5c-.5 0-.8-.3-.9-.8 0-.6.3-.9.9-.9.5 0 .8.3.8.8 0 .6-.3.9-.8.9zm88.2-1.7c.5 0 .8.3.9.8 0 .5-.2.9-.7.9-.6 0-.9-.3-.9-.8-.1-.5.2-.8.7-.9zm353.4 1.7c-.5 0-.9-.3-.9-.8 0-.6.3-.9.9-.9.5 0 .8.3.8.8 0 .6-.3.9-.8.9zM96 170.3c.6 0 .9.2.9.8 0 .6-.3.9-.9.9-.5 0-.8-.3-.8-.8.1-.5.4-.8.8-.9z" class="st5"/><path d="M537.6 98.1c.6.1.9.3.9.8s-.3.8-.8.8c-.6 0-.9-.4-.8-.9-.1-.4.2-.6.7-.7z" class="st6"/><path d="M10.4 110.2c0 .6-.2.9-.8 1-.5 0-.9-.2-.9-.7-.1-.6.2-.9.8-1 .6-.1.8.3.9.7z" class="st5"/><path d="M184.4 99.8c-.5 0-.8-.3-.9-.8 0-.5.2-.8.7-.9.6 0 .9.2.9.8 0 .6-.2.9-.7.9zm265-1.1c0 .5-.2.9-.7.9-.6.1-.9-.3-.9-.8s.3-.8.8-.8c.4-.1.7.2.8.7zm-439 0c-.1.5-.3.8-.8.8-.6 0-.9-.4-.9-.9s.3-.8.9-.8c.6.1.8.4.8.9z" class="st6"/><path d="M185.3 171.2c-.1.5-.4.8-.9.8-.6 0-.9-.4-.8-1 .1-.5.4-.8.9-.7.5.1.8.4.8.9zm264.1-60.9c0 .5-.3.8-.8.8s-.8-.3-.9-.8c0-.6.3-.9.9-.9.5.1.7.4.8.9zm89.1-17c-.1.5-.4.8-.9.8s-.8-.3-.8-.8c0-.6.3-.9.9-.9.5.1.8.4.8.9zm-354.1.8c-.5 0-.8-.3-.9-.8 0-.5.2-.9.8-.9.6 0 .9.3.9.9 0 .5-.3.8-.8.8zm264.2-1.9c.6.1.9.4.8.9 0 .6-.4.9-1 .8-.5 0-.8-.4-.7-.9.1-.6.5-.8.9-.8zM10.5 104.5c-.1.5-.3.8-.8.8-.6 0-.9-.3-.9-.9 0-.5.3-.8.8-.8.6.1.8.4.9.9zm438.1-.8c.5.1.8.3.8.9 0 .6-.4.9-.9.8-.5 0-.8-.4-.7-.9 0-.6.3-.8.8-.8zm-263.4 1c0 .5-.3.8-.8.9-.5 0-.9-.2-.9-.7-.1-.6.2-.9.8-1 .6 0 .8.3.9.8zM9.7 93.9c-.6 0-.9-.3-.9-.8s.3-.8.8-.9c.6 0 .9.3.9.9 0 .5-.4.7-.8.8zm-.1 37.4c-.6 0-.9-.4-.9-.8 0-.6.3-.9.9-.8.5 0 .8.4.8.9 0 .4-.4.7-.8.7zm351-.9c-.1.5-.3.8-.8.8-.6 0-.9-.3-.9-.9 0-.5.4-.8.9-.8.5.1.7.5.8.9zm-263.8.3c-.1.5-.3.9-.8.9s-.8-.3-.9-.8c0-.6.3-.9.9-.9.5-.1.8.3.8.8zm87.4-.9c.6 0 .9.3.9.8s-.3.8-.8.8c-.6 0-.9-.3-.9-.9.1-.4.4-.6.8-.7zm353.4 1.7c-.6-.1-.9-.3-.9-.8 0-.6.3-.9.9-.8.5 0 .8.4.7.9.1.4-.3.7-.7.7z" class="st5"/><path d="M537.6 83.8c.6.1.8.4.8.9 0 .6-.4.9-.9.8-.5 0-.8-.4-.7-.9 0-.5.4-.8.8-.8zm-352.4.9c-.1.5-.4.8-.9.7-.5 0-.8-.4-.7-.9.1-.6.4-.9 1-.8.4.2.6.6.6 1zm264.2-.3c0 .5-.3.8-.8.8s-.8-.2-.9-.8c0-.5.3-.9.8-.9.6.1.8.4.9.9zM9.5 83.5c.6 0 .9.3.9.8 0 .6-.3.9-.9.9-.5 0-.8-.3-.8-.8.1-.5.4-.8.8-.9z" class="st6"/><path d="M537.7 80.9c.5.1.8.4.8.9 0 .6-.4.9-.9.8-.5 0-.8-.4-.7-.9 0-.6.3-.8.8-.8zm-353.4 0c.6 0 .9.3.9.8 0 .6-.3.9-.9.9-.5 0-.8-.3-.8-.8 0-.6.3-.9.8-.9zm353.4 24.7c-.5 0-.8-.3-.9-.8 0-.5.2-.9.7-.9.6 0 .9.3.9.8.1.6-.2.9-.7.9zm-89.1-25c.5 0 .8.3.9.8 0 .6-.3.9-.9.9-.5 0-.8-.3-.8-.8s.3-.8.8-.9zm.8 49.8c0 .5-.2.9-.8.9-.6 0-.9-.3-.9-.8s.3-.8.8-.8c.5-.1.8.2.9.7z" class="st5"/><path d="M9.6 142.8c-.5 0-.8-.3-.9-.8 0-.6.3-.9.8-.9s.8.3.8.8c.1.6-.2.9-.7.9zm350.2-1.7c.5.1.8.4.8.9 0 .6-.4.9-.9.8-.5 0-.8-.4-.7-.9 0-.5.3-.7.8-.8zm88.9 1.7c-.6 0-.9-.3-.9-.8s.3-.9.8-.9.8.4.8.8c0 .6-.3.9-.7.9zm-351.9-.5c-.1.5-.4.8-.9.8s-.8-.3-.8-.8.3-.9.9-.8c.6-.1.8.3.8.8zm88.4-.1c0 .5-.3.8-.8.8s-.8-.3-.9-.8c0-.5.3-.9.9-.9.5.1.7.5.8.9zm352.4-.8c.5.1.8.4.8.9 0 .6-.4.9-.9.8-.5 0-.8-.4-.7-.9 0-.5.3-.8.8-.8z" class="st6"/><path d="M8.8 81.5c.1-.5.3-.8.8-.8s.8.3.9.8c0 .6-.3.9-.9.9-.5-.1-.8-.4-.8-.9zM537.6 78c.5 0 .8.3.9.8 0 .6-.3.9-.9.9-.5 0-.8-.4-.8-.8 0-.6.3-.9.8-.9zM9.7 151.5c-.6 0-.9-.3-.9-.8s.2-.9.8-.9c.6 0 .9.3.9.8s-.3.8-.8.9zm350.1-1.7c.6.1.9.4.9.9 0 .6-.4.9-.9.8-.5 0-.8-.4-.7-.9-.1-.6.3-.8.7-.8zm88.9 0c.5.1.8.4.8.9 0 .6-.4.9-.9.8-.5 0-.8-.4-.7-.9-.1-.6.2-.8.8-.8zm-351.8 1c0 .5-.3.8-.8.9-.5 0-.9-.2-.9-.7 0-.6.2-.9.8-.9.6-.1.8.2.9.7zm87.5-.8c.5.1.8.4.8.9 0 .6-.4.9-.9.8-.5 0-.8-.4-.7-.9 0-.5.3-.8.8-.8zm353.3 1.7c-.5 0-.8-.3-.9-.8 0-.5.2-.9.7-.9.6-.1.9.3.9.8.1.6-.2.8-.7.9zM185.2 78.8c0 .5-.3.8-.8.9-.6 0-.9-.3-.9-.9 0-.5.3-.8.8-.8.6 0 .9.3.9.8zm263.4.6c-.5 0-.8-.3-.9-.8 0-.5.2-.8.8-.9.6 0 .9.3.9.8.1.6-.3.9-.8.9zm-438.9 0c-.5 0-.8-.3-.8-.8s.2-.8.8-.9c.6 0 .9.3.9.8-.1.6-.4.9-.9.9z" class="st5"/><path d="M9.7 158.5c.5.1.8.3.8.8s-.3.8-.8.9c-.5 0-.9-.3-.9-.9.1-.5.5-.7.9-.8zm351 .8c0 .5-.3.8-.8.9-.6 0-.9-.3-.9-.9 0-.5.4-.8.8-.8.6 0 .9.3.9.8zm88-.8c.5 0 .8.3.8.8s-.2.8-.8.9c-.6 0-.9-.3-.9-.9.1-.5.4-.7.9-.8zM97 159.6c0 .5-.3.8-.8.8-.6 0-.9-.3-.9-.9 0-.5.4-.8.8-.8.6.1.8.4.9.9zm87.5.8c-.5-.1-.8-.3-.8-.8 0-.6.4-.9.9-.8.5 0 .8.4.8.9-.1.5-.4.7-.9.7zm353.3-1.6c.5 0 .8.3.8.8s-.3.8-.8.9c-.6 0-.9-.3-.9-.9 0-.6.4-.8.9-.8z" class="st6"/><path d="M10.6 170.9c0 .5-.3.8-.8.9-.6 0-.9-.3-.9-.9 0-.5.3-.8.9-.8.4 0 .7.3.8.8zm349.2-.8c.5 0 .9.2.9.8 0 .6-.3.9-.8.9s-.8-.3-.8-.8c-.1-.6.2-.8.7-.9zm89.7.9c-.1.5-.4.8-.9.8-.6 0-.9-.4-.8-1 .1-.5.4-.8.9-.7.6.1.8.4.8.9zm-264.2-25.9c-.1.5-.3.8-.9.8-.5 0-.8-.3-.8-.8 0-.6.3-.9.9-.9.5.1.7.4.8.9zm353.2-.1c0 .6-.3.9-.8.9s-.9-.2-.9-.7c0-.6.2-.9.8-.9.6 0 .8.3.9.7z" class="st5"/><path d="M9.6 115.3c.5.1.8.4.8.9s-.3.8-.8.8-.9-.3-.8-.9c-.1-.6.3-.8.8-.8zm438.9 11.4c.6.1.9.4.9.9s-.3.8-.8.8c-.6 0-.9-.3-.9-.9.1-.5.4-.7.8-.8z" class="st6"/><path d="M96.1 146c-.6-.1-.9-.3-.8-.9 0-.5.3-.8.8-.8.6 0 .9.3.9.9-.1.5-.5.7-.9.8z" class="st5"/><path d="M537.6 128.7c-.5 0-.8-.3-.8-.8s.3-.9.9-.8c.5 0 .8.4.7.9 0 .4-.3.6-.8.7z" class="st6"/><path d="M96.2 154.6c-.5 0-.8-.3-.9-.8 0-.6.3-.9.9-.9.5 0 .8.3.8.8 0 .6-.3.8-.8.9zm89.1-.9c0 .6-.3.9-.8.9s-.8-.3-.8-.8c0-.6.3-.9.9-.9.4 0 .6.4.7.8zm352.4.9c-.5-.1-.9-.3-.9-.8s.3-.8.8-.8c.6 0 .9.3.9.9 0 .5-.3.7-.8.7z" class="st5"/><path d="M10.4 127.6c-.1.5-.3.8-.9.8-.5 0-.8-.3-.8-.8s.3-.9.9-.8c.6 0 .8.3.8.8zm349.4.8c-.5 0-.9-.3-.9-.8s.3-.9.8-.9.8.3.8.8c.1.6-.2.9-.7.9zm-174.7-.6c0 .5-.2.8-.8.9-.5 0-.9-.2-.9-.7 0-.5.2-.9.8-1 .6-.1.9.3.9.8zm-89.1.9c-.5 0-.8-.3-.8-.8s.3-.9.9-.8c.5 0 .8.4.7.9 0 .4-.3.6-.8.7z" class="st6"/><path d="M10.6 173.5c0 .6-.3.9-.8.9s-.8-.2-.9-.7c0-.6.2-.9.8-.9.5 0 .8.3.9.7zm350.1.2c-.1.5-.3.8-.8.8s-.8-.3-.8-.8c0-.6.3-.9.9-.9.4 0 .7.4.7.9zm177.8-71.8c-.1.5-.4.8-.9.8-.6 0-.9-.4-.8-.9 0-.5.4-.8.9-.7.6 0 .8.3.8.8zm-89.8 72.6c-.5 0-.8-.3-.9-.8 0-.5.2-.9.7-.9.6 0 .9.3.9.8.1.6-.2.8-.7.9zm-263.4-72.6c-.1.5-.3.8-.9.9-.5 0-.8-.3-.8-.8 0-.6.3-.9.9-.9.5 0 .7.3.8.8zm264.2-.1c-.1.5-.4.8-.9.7-.6-.1-.8-.5-.7-1 .1-.5.4-.7 1-.7.4.1.6.5.6 1zm-439-.2c0 .5-.3.8-.8.9-.5 0-.8-.2-.9-.7 0-.6.2-.9.8-.9.6-.1.9.2.9.7zM96.9 174c-.1.5-.4.8-.9.8s-.8-.3-.8-.8c0-.6.3-.9.9-.8.6-.1.8.2.8.8z" class="st5"/><path d="M10.4 139.2c-.1.6-.4.8-.9.8s-.8-.3-.8-.9c0-.5.3-.8.9-.8.5.1.8.4.8.9z" class="st3"/><path d="M359.8 125.5c-.5-.1-.8-.3-.8-.8s.3-.8.8-.8c.6 0 .9.3.9.9 0 .5-.4.7-.9.7zm-349.2-.9c0 .6-.3.9-.8.9s-.8-.2-.9-.7c-.1-.6.2-.9.8-.9.5-.1.8.3.9.7zm438 42.4c.5 0 .9.3.9.8s-.2.8-.7.9c-.6 0-.9-.3-.9-.8s.3-.8.7-.9zM9.7 144c.5.1.8.3.8.9 0 .6-.4.9-.9.8-.5 0-.8-.4-.7-.9 0-.5.3-.8.8-.8z" class="st6"/><path d="M360.7 144.8c-.1.5-.3.8-.9.9-.5 0-.8-.3-.8-.8 0-.6.3-.9.9-.9.5.1.7.4.8.8zm87.1.1c0-.5.2-.9.8-.9.6 0 .9.3.9.8s-.3.8-.8.8c-.6.1-.8-.2-.9-.7zm-262.5 28.9c0 .5-.3.8-.8.9-.5 0-.8-.2-.9-.7-.1-.6.2-.9.8-.9.5-.1.8.2.9.7z" class="st5"/><path d="M538.6 124.9c0 .5-.3.8-.8.8s-.8-.3-.9-.8c0-.6.3-.9.9-.9.4.1.7.4.8.9zm-353.3 0c0 .5-.3.8-.8.9-.5 0-.8-.2-.9-.7 0-.6.3-.9.8-.9.5-.1.8.2.9.7zm-88.3 0c0 .5-.3.8-.8.8s-.8-.3-.9-.8c0-.6.3-.9.9-.9.4.1.7.4.8.9z" class="st6"/><path d="M449.5 124.6c-.1.6-.3.9-.8.9s-.8-.3-.9-.8c0-.6.3-.9.9-.9.5.1.7.4.8.8zM9.7 167c.6 0 .9.3.9.8s-.2.8-.7.9c-.6 0-.9-.3-.9-.8-.1-.5.2-.8.7-.9z" class="st5"/><path d="M360.7 167.9c0 .5-.3.8-.8.8s-.8-.3-.9-.8c0-.6.3-.9.9-.9.6.1.8.4.8.9z" class="st6"/><path d="M97 168.2c-.1.6-.4.8-.9.8s-.8-.4-.8-.9c0-.6.4-.8 1-.8.5.1.7.5.7.9zm88.3-.1c0 .5-.2.8-.8.9-.5 0-.9-.2-.9-.7-.1-.6.2-.9.8-.9.6-.1.8.2.9.7zm352.1.9c-.1-.1-.2-.2-.4-.3-.2-.5-.2-1 .4-1.3.3-.1.6-.1.9.1.3.3.4.6.3 1-.3.5-.8.5-1.2.5zM9.7 152.7c.5.1.8.3.8.8s-.3.8-.8.8c-.6 0-.9-.3-.9-.9.1-.4.4-.7.9-.7zm351 .8c0 .5-.3.8-.8.8s-.8-.2-.9-.8c0-.6.3-.9.8-.9.6.1.9.4.9.9zm88.8 0c0 .5-.3.8-.8.9-.5 0-.9-.2-.9-.7 0-.6.2-.9.8-.9.6-.1.9.2.9.7z" class="st5"/><path d="M538.4 139.4c0 .6-.3.9-.9.8-.5 0-.8-.3-.8-.7 0-.5.3-.8.8-.9.6 0 .9.3.9.8zm-89.9-1c.5 0 .8.3.8.8s-.3.8-.8.8-.8-.3-.8-.8.3-.8.8-.8zm-351.7 1c-.1.6-.3.9-.9.8-.5 0-.7-.3-.8-.8 0-.5.3-.8.8-.9.6.1.9.4.9.9zm87.5.8c-.5 0-.8-.3-.8-.8s.3-.8.8-.8.8.3.8.7c.1.6-.2.9-.8.9z" class="st3"/><path d="M11.2 95.8c0 .3.1.6.1.9-.1 0-.2.1-.3.1.1-.4-.1-.8.2-1zm84.6-27.5c.1 0 .3 0 .4-.1 0 .1 0 .2.1.3-.3.1-.5.1-.5-.2z" class="st1"/><path d="M371.9 112.8h-65.3c-.6 0-1.3.1-1.3-.8 0-.8.8-.8 1.4-.8h7.4c27.6.1 55.2.1 82.8.2 13.4 0 26.7.1 40.1.1.8 0 1.4 0 1.3-1.1-.1-.9.7-1.1 1.4-.9 1.6.5 3.2 1.1 4.8 1.7.4.1.7.4.7.9s-.3.7-.7.9c-1.6.7-3.1 1.4-4.7 2-.8.3-1.6.1-1.5-.9 0-1-.5-1-1.2-1-18.8-.2-37.7-.1-56.5-.1H372c-.1 0-.1-.1-.1-.2zm-43.1-9.4h21.6c.9 0 1.3-.2 1.2-1.2 0-1.1.5-1.5 1.5-1 1.3.6 2.6 1.3 4 1.9.5.2.8.5.8 1.1 0 .6-.4.8-.8 1.1l-3.6 1.8c-1.1.5-1.9.2-1.8-1 0-1.1-.4-1.2-1.3-1.2h-43.6c-.5 0-1-.1-1-.7-.1-.7.4-.9 1-.9h22.1c-.1 0-.1 0-.1.1z" class="st2"/><path d="M297.7 88.5c-1.4.4-2.4 0-3-1.2-.3-.7-.8-.7-1.5-.6-3.3.8-6.2-1.1-6.8-4.3-.6-3.2 1.3-6 4.5-6.6 2.2-.4 4.6.6 5.7 2.4 1.2 2 1.1 4.9-.4 6.6-.6.6-.5 1 0 1.6.5.6 1 1.3 1.5 2.1zm-2.3-7.2c0-2.3-1.5-3.9-3.6-3.8-2.1 0-3.6 1.6-3.6 3.8 0 2.2 1.6 3.9 3.7 3.9 2.1-.1 3.5-1.7 3.5-3.9zm-10.6-2.2c-.9.1-1.7.4-2.1-.9-.4-1.1-2.5-1.3-3.3-.4-.7.7-.5 1.7.5 2.1.9.3 1.8.5 2.6.8 1.8.6 2.5 1.5 2.5 3.1-.1 1.4-1 2.5-2.7 2.9-2.5.6-4.5-.1-5.2-1.9-.2-.5-.7-1.1 0-1.4.5-.2 1.3-.4 1.7.7.5 1.3 2.9 1.6 3.9.6.7-.7.4-1.9-.7-2.3-.9-.3-1.8-.5-2.6-.7-1.7-.5-2.4-1.5-2.3-2.9.1-1.4 1.1-2.5 2.6-2.9 2.2-.8 5.1.5 5.1 3.2zm50.6 0c-.9.1-1.7.3-2.1-.9-.4-1.1-2.5-1.2-3.4-.4-.7.7-.5 1.7.4 2 .7.3 1.5.4 2.3.6 2.2.6 3 1.5 2.9 3.3-.1 1.5-1.1 2.5-3.1 2.9-1.6.3-3.1.1-4.3-1.1-.3-.3-.5-.8-.7-1.2-.1-.3-.4-.9.1-1 .5-.1 1.2-.4 1.7.4.8 1.5 2 1.8 3.5 1.3.6-.2.9-.6 1-1.2 0-.7-.4-1.1-1-1.3-.7-.3-1.5-.4-2.3-.6-1.9-.5-2.7-1.5-2.7-3 0-1.6 1.1-2.7 2.9-3.1 2.1-.6 4.9.7 4.8 3.3zm-26.3 7.5c1.3-3.4 2.7-6.8 3.9-10.2.3-.7.7-.6 1.2-.6s1-.1 1.2.6c1.3 3.4 2.6 6.7 3.9 10.1-1.3.3-2.3.3-2.5-1.3-.1-.6-.4-.8-1-.7-.7 0-1.4.1-2.2 0-1.3-.1-2.2.1-2.5 1.6 0 .6-.1.6-2 .5zm5.2-8.5c-.6 1.7-1.2 3.1-1.8 4.7h3.5c-.6-1.5-1.1-3-1.7-4.7zm-6.1 1.9c-.1 1.1.2 2.5-.2 3.8-.6 2.1-2.5 3.3-4.7 3.1-2.2-.2-3.9-1.9-3.9-4.1-.1-2.1 0-4.2 0-6.2 0-.7.3-.8.9-.7.5 0 1-.1 1 .8 0 2.1-.1 4.2.1 6.2.1 1.4 1.1 2.3 2.5 2.4 1.4 0 2.4-.9 2.6-2.3.3-2 .1-4.1.1-6.1 0-.8.2-1 1-1 .9 0 .8.5.8 1-.2.9-.2 1.9-.2 3.1zm13.5 2.1v-3.5c0-.8-.2-1.2-1-1.1-.4.1-.8 0-1.2 0-.6.1-.9-.1-.9-.8 0-.8.2-.9 1-.9h6.3c.7 0 .8.3.8.9 0 .7-.2.9-.9.9-2.3 0-2.3.1-2.3 2.3v5.9c0 .8-.3.9-1 .9s-1-.2-.9-.9c.1-1.3.1-2.5.1-3.7zm80.7-7.5c2.1 0 3.3.8 3.5 2.3.3 2-.9 3.4-3 3.5-2.1.1-2.1.1-2.1-2v-2.3c0-1.5 0-1.5 1.6-1.5zm.2.9c-.6-.1-.9 0-.9.8.1.8 0 1.7 0 2.5 0 .4.1.6.6.6 1.4.1 2.4-.6 2.5-1.8.1-1.2-.7-2-2.2-2.1zm30.1 3.1v-1c.1-.7-.3-.9-.8-.9s-1 .3-.9 1c.1.6 0 1.3 0 1.9 0 .3.1.7-.5.8-.6 0-.5-.3-.5-.7v-1.8c0-.2.1-.5 0-.6-1.3-.9.3-1.6.3-2.4 0-.4.4-.5.8-.6.2-.1.5-.2.6.1.1.2.2.6-.2.7-.4.2-.6.4-.4.8.1.2.6.4.8.3.3-.1.8-.1.8-.7 0-.5.2-1.1.9-1.3.2-.1.5-.3.7.1.1.2.1.5-.2.7-.5.3-1 .7 0 1 .3.1.3.5.2.6-1.3.7-.5 2-.7 3-.1.5-.1.9-.7.7-.5-.1-.2-.5-.3-.8.1-.2.1-.5.1-.9zm-20.4.8h1.6c.4 0 .9-.2.8.5 0 .6-.5.4-.8.4h-2.4c-.2 0-.6.2-.7-.2-.1-.3 0-.6.2-.9.6-.5 1.2-1.1 1.7-1.7.2-.3.5-.5.7-.8.3-.5.2-1-.4-1.3-.6-.3-1.1 0-1.2.5-.1.5-.4.7-.8.5-.5-.2-.3-.7-.1-1 .4-.9 1.5-1.3 2.5-.9s1.4 1.3 1 2.3c-.2 1.2-1.2 1.7-2.1 2.6zm-19.9-2.6v-1.7c0-.3.1-.5.5-.5s.5.1.5.5v3c0 .9.4 1.4 1.2 1.5.9.1 1.5-.4 1.6-1.3.1-.9 0-1.9.1-2.9 0-.4-.2-.8.5-.8.6 0 .5.4.5.8V78c-.1 1.6-1 2.5-2.5 2.5s-2.3-.9-2.4-2.5c-.1-.4 0-.8 0-1.2zm-5.3 0v1.4c0 .8.4 1.3 1.2 1.4.8.1 1.4-.3 1.5-1.1.1-1 .1-2.1.1-3.1 0-.4-.1-.7.5-.7s.5.4.5.8v2.6c-.1 1.6-1 2.5-2.5 2.5s-2.3-.9-2.4-2.5v-2.7c0-.3 0-.6.5-.6.4 0 .5.2.5.6.1.3.1.8.1 1.4zm-92.2 27.6c.2-.7.4-1.3.5-2 .1-.4.3-.5.7-.5.5.1.2.4.1.6-.3.9-.5 1.8-.8 2.7-.1.3-.2.6-.6.6-.4 0-.5-.3-.6-.6-.2-.6-.4-1.2-.6-1.9-.5.6-.5 1.3-.7 1.9-.1.3-.2.6-.6.5-.4 0-.4-.2-.5-.5-.3-.9-.6-1.9-.9-2.8-.1-.2-.2-.5.1-.6.3-.1.5 0 .6.3.2.6.4 1.3.7 2.3.3-.8.4-1.4.6-1.9.1-.3.1-.7.6-.7.6 0 .6.4.7.8.2.6.2 1.3.7 1.8zm143.2-29.8c-.5.7-1 1.2-1.5 1.8.5.1.8.2 1.2.3 1 .3 1.4 1.1 1.3 2-.1 1-.9 1.7-2 1.7-1 0-1.8-.4-2-1.5-.3-1.2.7-3.6 1.8-4.3.3-.1.7 0 1.2 0zm0 4c0-.7-.2-1.1-1-1.1-.7 0-1 .4-1 1 0 .7.3 1.1 1 1.1.6.1.9-.4 1-1zm2.6 1.8c.4-.8 1.2-1.1 1.4-1.9-.5-.3-1.1 0-1.5-.4-.6-.5-.9-1.1-.8-1.9.2-1 .8-1.6 1.7-1.7.8-.1 1.5.2 2 .8.9 1.3-.4 4.7-1.9 5.1-.3.1-.5 0-.9 0zm2.1-3.9c0-.7-.3-1.1-1-1.1s-1 .5-1 1.1c0 .6.3 1.1 1 1.1.7-.1.9-.5 1-1.1zm-24.2-1.8c-.4.6-.9 1.1-1.4 1.8 1 .1 1.9.2 2.3 1.2.3.6.3 1.2 0 1.7-.4.9-1.1 1.1-2.1 1.1-.9-.1-1.5-.6-1.7-1.4-.3-1.2.7-3.7 1.8-4.3.3-.3.7-.2 1.1-.1zm0 4c0-.8-.2-1.2-.9-1.2s-1 .3-1 1 .3 1.1 1 1.1c.5.1.9-.4.9-.9zm4 1.7c-1.2 0-1.9-.5-2.2-1.5-.3-1.1-.1-2 .9-2.6.9-.5 1.8-.4 2.5.3.3.3.7.6.3 1-.2.2-.6.1-.9-.3-.5-.6-1.2-.6-1.6-.1-.5.6-.5 1.4 0 2 .5.5 1.1.5 1.5 0 .3-.4.8-.5 1-.2.3.4-.1.7-.4 1-.2.3-.7.5-1.1.4zm4.6 0c-1.2 0-1.9-.5-2.2-1.5-.3-1.1-.1-2 .9-2.6.9-.5 1.8-.4 2.5.3.3.3.7.6.3 1-.2.2-.6.1-.9-.3-.5-.6-1.2-.6-1.6-.1-.5.6-.5 1.4.1 2 .4.4 1 .4 1.4-.1.3-.4.8-.7 1.1-.3.3.4-.2.8-.5 1.1-.4.5-.8.6-1.1.5zM293.5 95.8v2c0 .2 0 .5-.3.5-.4 0-.4-.2-.4-.5v-2.6c0-.2-.2-.6.2-.7.4-.1.7.1.9.4.3.6.7 1.1 1.4 1.7v-1.4c0-.3-.1-.7.4-.7.6 0 .5.4.5.8v2.4c0 .3.1.6-.3.7-.4.1-.7-.1-.9-.4-.4-.7-.9-1.3-1.5-2.2zm9.6 2.5c-.8.3-1-.1-1.3-.6-.1-.3-.2-.8-.8-.7-.6.1-.3.5-.4.8-.1.2.1.6-.4.6s-.4-.4-.4-.7v-2.5c0-.6.1-.8.7-.8.5.1 1 0 1.4.1.8.2 1.2.8.8 1.4-.4.9-.1 1.6.4 2.4zm-1.7-3.1c-.3 0-.7-.1-.7.4 0 .4.2.6.6.5.4 0 .9 0 .8-.6 0-.4-.4-.2-.7-.3zm-9.1 16.4v-.4c.2-.5-.5-1.3.5-1.6 1.1-.3 2.5.2 2.8 1.1.3.9.3 1.7-.5 2.4-.7.6-1.6.5-2.4.4-.3 0-.3-.3-.3-.5-.1-.5-.1-1-.1-1.4zm.7-.1c.3.4-.5 1.3.7 1.3.7 0 1.2-.5 1.2-1.2 0-.8-.4-1.2-1.3-1.2-1 0-.4.7-.6 1.1zm-3.6-15c0-2.1.3-2.4 2.3-2 .2 0 .5.1.5.4 0 .3-.2.4-.5.4h-1.1c-.3 0-.5.1-.5.4 0 .3.2.3.5.4.5.1 1.4-.3 1.4.4s-.9.3-1.4.3c-.3.1-.5.2-.5.5 0 .4.3.4.6.4.5.1 1.4-.4 1.4.3 0 .8-.9.3-1.5.4-1.9.3-1-1.2-1.2-1.9zm11.1 15.1v-.1c0-1.8.6-2.3 2.4-1.8.2.1.4.1.4.3 0 .3-.2.4-.5.4h-1.1c-.2 0-.5 0-.5.4 0 .3.2.3.5.4.5.1 1.4-.3 1.4.3 0 .7-.9.3-1.3.4-.3.1-.5.1-.5.5s.2.4.5.4h.1c.5.2 1.3-.4 1.3.4 0 .6-.9.3-1.3.3-1.4.1-1.4 0-1.4-1.9zm-.8-.6c0 1.8-.5 2.6-1.8 2.5-.9 0-1.5-.5-1.6-1.4v-2c0-.3 0-.5.4-.5.3 0 .4.2.4.5v1.6c0 .6.1 1.1.8 1.2.8 0 .9-.5.8-1.1v-1.2c0-.3-.2-.9.5-.9.6 0 .4.5.4.8.1.1.1.3.1.5zm-3.5-5.2c.4-1.1.8-2.2 1.2-3.2.1-.3.2-.7.7-.6.4 0 .5.3.6.6.4.9.7 1.8 1 2.7.1.2.3.4.1.6-.2.1-.5.2-.7-.1-.7-.9-1.4-.9-2 0-.3.2-.6 0-.9 0zm1.8-2.6c.2.4-.6.7-.2 1.2.1.1.6.1.6 0 .1-.5-.1-.8-.4-1.2zm.1-8.7h.8c.3 0 .6-.1.7.3 0 .4-.2.5-.5.4-.6-.1-.5.3-.5.7v1.9c0 .3 0 .6-.4.6s-.4-.3-.4-.6v-1.3c0-.6.2-1.4-.8-1.3-.2 0-.3-.2-.3-.4 0-.3.2-.3.4-.3h1zm5.1 7.4h1.1c.2 0 .4.1.4.3 0 .2-.1.4-.3.4-1.1-.1-.6.7-.8 1.2-.2.7.5 1.8-.4 1.9-.7 0-.2-1.2-.3-1.8-.1-.6.2-1.4-.9-1.3-.2 0-.3-.2-.3-.4 0-.3.2-.3.4-.3h1.1zm3.7-7.4c-.5 1.3-1.5 2.1-1.4 3.5 0 .2-.1.4-.3.4-.2 0-.4-.1-.4-.3.1-1.2-.7-2-1.1-2.9-.1-.2-.5-.4-.1-.6.2-.1.5-.1.7.2.3.4.4 1 .8 1.3.7-.5.5-1.9 1.8-1.6zm91.5-17.1v-2.3c0-.3 0-.5.4-.5s.5.2.5.6v4.6c0 .3 0 .6-.5.6s-.5-.3-.5-.6c.1-.8.1-1.6.1-2.4zm-97.2 26.4v1.5c0 .2 0 .5-.3.5s-.4-.2-.4-.4v-3c0-.2 0-.5.4-.5s.4.3.4.6c-.1.4-.1.9-.1 1.3zm106.8-27c-.1.4-.3.6-.7.6-.4 0-.6-.3-.6-.6 0-.4.2-.7.7-.7.4 0 .6.3.6.7zm-1.3 3c0-.3.2-.6.6-.6.4 0 .7.2.7.6 0 .4-.2.6-.6.6-.4.1-.7-.1-.7-.6z" class="st4"/><path d="M65.9 103.4h21.4c.9 0 1.4-.1 1.3-1.2-.1-1.1.5-1.5 1.5-1 1.3.6 2.6 1.3 4 1.9.5.2.8.5.8 1.1 0 .6-.4.8-.8 1.1l-3.6 1.8c-1.1.5-1.9.1-1.8-1.1 0-1.1-.4-1.2-1.3-1.2H43.8c-.5 0-1-.1-1-.7 0-.7.5-.9 1-.9H66c-.1.1-.1.1-.1.2z" class="st2"/><path d="M33.7 88c-1.4.4-2.4.1-2.9-1.2-.4-.8-.9-.8-1.6-.6-3.1.8-6-1-6.7-4.1-.7-2.9 1.1-6 3.9-6.7 3.2-.8 6.2.9 6.9 4 .4 1.8.2 3.5-1.1 4.9-.5.6-.4 1 0 1.5.5.7.9 1.4 1.5 2.2zm-2.3-7.1c0-2.4-1.4-3.9-3.6-3.9-2.1 0-3.6 1.5-3.6 3.7 0 2.3 1.5 3.9 3.6 3.9 2.1.1 3.6-1.5 3.6-3.7zm40-2.2c-.9.1-1.7.3-2.1-.9-.4-1.2-2.6-1.3-3.4-.4-.6.7-.4 1.7.5 2 .9.3 1.8.5 2.7.8 1.7.5 2.4 1.5 2.4 3.1 0 1.4-1 2.5-2.6 2.9-1.1.3-2.1.3-3.2 0-1.1-.4-1.9-1.1-2.3-2.2-.1-.4-.4-1 .1-1.1.5-.1 1.2-.4 1.6.4.7 1.4 2.4 1.9 3.7 1.1.5-.3.7-.7.7-1.2 0-.6-.3-1-.8-1.2-.8-.3-1.6-.4-2.4-.7-1.9-.5-2.8-1.5-2.8-3s1.1-2.7 2.9-3.1c2.7-.5 4.6.8 5 3.5zm-50.6 0c-.9.1-1.7.4-2.1-.9-.4-1.2-2.6-1.3-3.4-.4-.6.7-.4 1.6.5 2 .9.3 1.8.5 2.6.8 1.9.6 2.5 1.4 2.5 3.1 0 1.4-1 2.5-2.7 2.9-2.4.6-4.5-.1-5.2-1.9-.2-.5-.7-1.1 0-1.4.5-.2 1.3-.4 1.7.7.5 1.3 2.9 1.6 3.9.6.7-.7.4-1.9-.7-2.3-.9-.3-1.8-.5-2.6-.7-1.7-.5-2.4-1.5-2.3-2.9.1-1.4 1.1-2.5 2.6-2.9 2.3-.8 5.2.5 5.2 3.3zm34.6 7.4c-1.3.2-2.3.2-2.5-1.3-.1-.6-.5-.7-1-.7-.7 0-1.4.1-2 0-1.3-.2-2.2.1-2.6 1.6-.3 1.1-1.3.2-2.1.4 1.3-3.4 2.7-6.8 4-10.3.3-.7.9-.4 1.3-.4.4-.1.8-.1 1 .5l3.9 10.2zM52 82.3c-.6-1.6-1.1-3-1.8-4.7-.6 1.7-1.2 3.2-1.8 4.7H52zm-7.8-2.8c-.2 1.2.2 2.5-.2 3.9-.6 2.1-2.4 3.2-4.7 3-2.2-.2-3.9-1.7-4-3.9-.1-2.2 0-4.3 0-6.5 0-.8.5-.6.9-.7.5 0 .9 0 .9.7 0 2.1 0 4.2.1 6.2.1 1.5 1.1 2.4 2.5 2.4s2.3-.9 2.5-2.3c.3-2 .1-4.1.1-6.1 0-.8.3-.9 1-.9s.9.2.9.9c-.1 1 0 2.1 0 3.3zm13.2 2.1V78c0-.7-.2-1-1-.9h-1.2c-.6 0-1 0-1-.9 0-.8.3-.9 1-.9h6.3c.6 0 .8.2.8.8 0 .5.1 1-.8 1-.7-.1-1.8-.2-2.2.1-.5.5-.2 1.5-.2 2.3v5.7c0 .7-.2.9-.9.9-.6 0-1.1 0-1-.9.3-1.1.2-2.3.2-3.6zm74.4-5.1v-.4c.4-.8-.9-2.3.8-2.4 2.7-.3 4.1.6 4.3 2.4.2 1.8-.8 3-2.5 3.3h-.1c-2.5.3-2.5.3-2.5-2.9zm.9 0v.6c.1.5-.4 1.2.3 1.3.7.2 1.5.1 2-.4.8-.7.9-1.6.5-2.5-.5-1-1.5-1.1-2.4-1-.9.2-.3 1.1-.5 1.7.1.1.1.2.1.3zm18 0c-.2.6-.2 1.3-.4 1.9-.3.8-.9 1.2-1.8 1.2-.8 0-1.4-.4-1.7-1.2-.4-1.1-.4-2.3-.1-3.4.3-.9.9-1.4 1.8-1.4s1.5.5 1.7 1.4c.3.4.4.9.5 1.5zm-1.1 0c-.2-.8.2-2.1-1.1-2-1.2 0-1 1.3-1 2.1s-.2 1.9 1 1.9c1.3 0 .9-1.2 1.1-2zm24.2-1v-1.7c0-.4.1-.6.5-.6s.4.3.4.6V79c0 .2-.1.6-.3.5-.7-.5-1.3.1-2 .1-.9 0-1.5-.4-1.8-1.2-.4-.9-.3-1.9.5-2.7.8-.8 1.7-.7 2.7-.2zm0 1.8c0-.8-.4-1.2-1.1-1.3-.8 0-1.2.6-1.2 1.3 0 .7.4 1.4 1.2 1.3.7 0 1.1-.5 1.1-1.3zm-50.5-1.5v-1.6c0-.4.1-.6.5-.6.5 0 .5.3.5.6v2.9c0 .9.4 1.4 1.2 1.5.9.1 1.5-.4 1.5-1.3.1-1 .1-2 .1-3 0-.4 0-.7.5-.7s.4.3.4.7v2.9c-.1 1.5-1.1 2.4-2.5 2.3-1.4 0-2.3-.9-2.3-2.4.1-.4.1-.9.1-1.3zm-6.2 0v-1.7c0-.4.2-.5.5-.5.4 0 .5.2.5.5v3c0 .9.4 1.4 1.2 1.5.9.1 1.5-.4 1.6-1.3.1-.9 0-1.9.1-2.9 0-.4-.2-.8.5-.8.6 0 .5.4.5.8V77c-.1 1.6-1 2.5-2.5 2.5s-2.3-.9-2.4-2.5v-1.2zm-87 28.2c.2-.6.4-1.2.5-1.8.1-.3.2-.5.6-.5.4 0 .5.2.6.5.2.6.4 1.3.6 2.2.3-.9.5-1.6.6-2.2.1-.5.4-.5.7-.4.5.1.1.4.1.6-.2.9-.5 1.7-.8 2.6-.1.3-.2.7-.7.6-.5 0-.5-.3-.5-.6-.2-.6-.3-1.1-.5-1.8-.6.5-.4 1.2-.7 1.8-.1.2-.1.6-.6.6s-.6-.3-.7-.6c-.3-.8-.6-1.7-.8-2.5-.1-.2-.4-.6.1-.8.5-.1.6.2.7.6.2.6.3 1.1.4 1.7h.4zm112.5-24.6c.4-.8 1.2-1.1 1.4-1.9-2-.4-2.7-1.3-2.2-2.7.4-1 1.2-1.4 2.1-1.3 1 .1 1.7.7 1.8 1.9.1 1.6-.8 2.8-1.8 3.8-.4.4-.8.2-1.3.2zm1.5-2.9c.4-.1.7-.4.7-1.1 0-.7-.4-1-1.1-1-.7 0-1 .5-1 1.1 0 .6.3 1.1 1.4 1zm25.1-.9c.2.6-.4 1.5.7 1.9.1 0 .1.5-.1.6-.5.1-.5.5-.5.9 0 .3-.1.5-.4.4-.2 0-.6 0-.5-.3.1-1.1-.6-.9-1.3-.9-.5 0-1.1.3-1.4-.3-.3-.6.3-1 .6-1.5.5-.7 1-1.4 1.4-2 .3-.5.6-1 1.3-.8.6.2.2.8.3 1.2-.1.3-.1.5-.1.8zm-2.5 1.6c1.7.2 1.9-.1 1.3-1.9-.4.6-.8 1.2-1.3 1.9zm-7.1-1.6c.2.6-.5 1.5.6 1.9.1 0 .1.5-.1.6-.6.2-.6.6-.5 1 0 .3-.2.4-.5.4-.2 0-.5 0-.4-.3.1-1.1-.6-.9-1.2-1-.5 0-1.1.3-1.4-.2-.3-.6.2-1 .5-1.5.5-.7 1.1-1.5 1.6-2.2.3-.4.6-.7 1.1-.6.6.2.2.7.3 1.1.1.2 0 .4 0 .8zm-2.5 1.6c1.7.1 1.7.1 1.4-2-.4.7-.9 1.3-1.4 2zm-3.2.4h-.6c-.3.1-.9-.3-.9.4 0 .5.5.8 1.1.7.2 0 .5-.1.6-.3.3-.3.8-.6 1-.2.3.4-.2.8-.6 1-.8.4-1.7.5-2.5-.1-.9-.7-1-1.6-.7-2.6.3-.9 1-1.4 2-1.4s1.6.6 1.9 1.5c.2.7.1 1-.6.9-.1 0-.4.1-.7.1zm.5-.9c0-.4-.2-.6-.5-.7-.4-.3-.8-.1-1.2.2-.1.1-.4.3-.2.5.3.3.7.1 1 .1.2 0 .6.1.9-.1zm24.1-.6v1.4c0 .6-.1 1.2.8 1.1.3 0 .4.1.4.4 0 .4-.3.4-.6.4h-2.4c-.2 0-.6.1-.6-.3s.2-.5.5-.5c.8.1.8-.4.8-1v-1.9c0-.6.1-1.3-.9-1.1-.2 0-.4-.1-.4-.3 0-.3.2-.3.4-.4 1.3-.7 2-.3 2 1.2v1zm-14.9 0v1.4c0 .6-.1 1.2.8 1.1.3 0 .4.1.4.4 0 .3-.2.4-.5.4h-2.6c-.2 0-.5 0-.5-.3s.1-.5.4-.5c1 .1.9-.6.9-1.2v-1.6c0-.6.2-1.4-.9-1.2-.3 0-.5-.3-.4-.5.4-.5 1.1-.5 1.8-.5.5 0 .6.3.5.7.1.6.1 1.2.1 1.8zM31.2 95.9v1.8c0 .3 0 .5-.4.5-.3 0-.4-.2-.4-.5v-2.9c0-.2-.1-.5.3-.6.3 0 .5 0 .7.3.4.6.8 1.2 1.5 1.9V95c0-.3-.1-.7.4-.7s.5.3.5.7v2.6c0 .3.1.6-.4.6-.3 0-.5-.1-.7-.3-.4-.7-.9-1.3-1.3-2h-.2zm9.5 2.2c-.9.3-1-.3-1.2-.8-.2-.3-.3-.6-.8-.6-.5.1-.3.5-.3.8-.1.3.1.7-.4.7s-.3-.4-.3-.7c0-.6-.1-1.2 0-1.8.1-.5-.4-1.2.3-1.4.7-.2 1.6-.2 2.3.2.4.3.5.7.4 1.2-.4 1.4-.3 1.4 0 2.4zm-.9-2.9c-.1-.3-.5-.2-.8-.2-.4 0-.6.1-.6.5 0 .5.4.4.7.4.4 0 .7 0 .7-.7zM30 111.3v-.4c.2-.5-.5-1.3.5-1.6 1.2-.3 2.5.2 2.8 1.1.3.9.3 1.7-.5 2.4-.7.6-1.6.5-2.4.4-.3 0-.3-.3-.3-.5-.1-.4-.1-.9-.1-1.4zm.7 0c.3.4-.4 1.2.6 1.2.8 0 1.3-.4 1.3-1.2 0-.7-.4-1.1-1.2-1.2-1.1 0-.5.8-.7 1.2zm-3.6-15.1v-.4c.1-.5-.3-1.3.2-1.5.7-.2 1.5-.1 2.3-.1.1 0 .3.2.3.3 0 .2-.1.4-.3.4h-1.2c-.2 0-.5 0-.5.4 0 .3.2.4.4.4.5.1 1.4-.3 1.4.3 0 .7-.9.3-1.3.4-.3.1-.5.1-.5.5s.2.5.5.4h.2c.4.2 1.2-.4 1.2.4 0 .6-.8.3-1.2.3-1.5.2-1.5.2-1.5-1.8zm11 15.1c0-2 .3-2.3 2.3-1.9.2 0 .5.1.5.4 0 .3-.2.4-.5.4h-1.1c-.3 0-.5.1-.5.4 0 .3.3.3.5.4.5.1 1.4-.3 1.4.4s-.9.3-1.4.3c-.4.1-.5.2-.5.5 0 .4.3.4.6.4.5.1 1.4-.4 1.4.3 0 .8-1 .3-1.5.4-1.2 0-1.2 0-1.2-2zm-.4-5.5c-1.4-.9-2.6-1.6-3.8.2v-.5c.4-1.1.8-2.1 1.2-3.2.1-.3.2-.6.6-.6.5 0 .6.3.7.6.4 1.1.8 2.1 1.3 3.5zm-2-2.8c0 .4-.6.7-.2 1.1.1.1.6.1.6 0 .1-.4-.1-.8-.4-1.1zm1.7 7.7c0 2-.5 2.7-1.9 2.6-.8-.1-1.3-.5-1.4-1.3-.1-.7 0-1.4 0-2 0-.3 0-.6.4-.6s.3.4.4.6v1.7c0 .5.3.9.9.9.6 0 .8-.4.8-.9v-1.6c0-.3-.1-.7.4-.7.6 0 .5.4.5.7-.1.2-.1.4-.1.6zm-1.6-16.5h.8c.3 0 .6-.1.6.3s-.2.5-.5.4c-.6-.1-.5.3-.5.7v1.9c0 .3 0 .6-.4.6s-.4-.3-.4-.6v-1.3c0-.6.2-1.4-.8-1.3-.2 0-.3-.2-.3-.4 0-.3.2-.3.4-.3h1.1zm8.7.1c-.4 1.2-1.6 2.1-1.4 3.5 0 .2-.1.3-.4.3-.2 0-.4-.1-.4-.4.2-1.4-1-2.3-1.4-3.5 1.3-.4 1.1 1 1.7 1.4.8-.2.7-1.6 1.9-1.3zm84.9-17.8v-2.3c0-.4.1-.6.5-.6s.4.2.4.5v4.6c0 .3 0 .6-.5.6s-.5-.3-.5-.6c.1-.6.1-1.4.1-2.2zm-88.5 25.2H42c.2 0 .4.1.4.3 0 .2-.1.4-.3.4-.9-.1-.7.5-.8 1.1 0 .2.1.5 0 .7-.1.5.4 1.3-.4 1.3-.7 0-.2-.9-.4-1.4-.2-.7.5-1.8-1-1.8-.1 0-.1-.2-.2-.4 0-.2.1-.3.3-.3.5.1.9.1 1.3.1zm-2 2v1.4c0 .2 0 .5-.4.5-.3 0-.4-.2-.4-.5v-3c0-.2 0-.5.4-.5.3 0 .4.2.4.5v1.6zM139 75.8c0 .4-.3.6-.7.7-.4 0-.6-.2-.6-.6 0-.4.2-.7.6-.7.4-.1.6.2.7.6zm0 3c0 .4-.2.6-.7.6-.4 0-.6-.2-.6-.5 0-.4.1-.7.6-.7.3 0 .6.2.7.6z" class="st4"/><path d="M23.3 40.8c-.1 1.4-.2 2.7-.9 3.9-1.5 2.5-4.9 2.5-6.3 0-1.3-2.6-1.3-5.2 0-7.8.6-1.2 1.7-1.9 3.1-1.9 1.5 0 2.5.6 3.2 1.9.7 1.2.8 2.5.9 3.9zm-2.4 0c0-.9 0-1.8-.3-2.6-.3-.6-.7-1.1-1.4-1.1s-1.1.4-1.3 1a9.2 9.2 0 0 0 0 5.2c.2.6.6 1 1.3 1 .7 0 1.1-.4 1.4-1 .3-.7.3-1.6.3-2.5z" class="st3"/><path d="M537.7 172c-.5-.1-.8-.3-.8-.9 0-.6.4-.9.9-.8.5 0 .8.4.7.9 0 .6-.3.8-.8.8zm-.1 1c.6 0 .9.3 1 .8 0 .6-.3.9-.8.9s-.8-.3-.8-.8c-.1-.5.2-.8.6-.9z" class="st5"/><path d="M295.4 81.3c0 2.2-1.4 3.8-3.5 3.8s-3.7-1.6-3.7-3.9c0-2.2 1.5-3.8 3.6-3.8 2.2 0 3.6 1.5 3.6 3.9zm18.9-3.2c.6 1.7 1.2 3.1 1.8 4.7h-3.5c.5-1.5 1-3 1.7-4.7zm88.3-2.6c1.5.1 2.3.9 2.2 2.1-.1 1.3-1.1 1.9-2.5 1.8-.5 0-.6-.2-.6-.6 0-.8.1-1.7 0-2.5 0-.8.4-.9.9-.8zm35.5 3.1c0 .6-.4 1.1-1 1-.6 0-1-.5-1-1.1 0-.7.4-1 1-1 .7 0 1 .4 1 1.1zm4.7-2.1c-.1.6-.3 1-1 1.1-.7 0-1-.5-1-1.1 0-.6.3-1.1 1-1.1s1 .4 1 1.1zm-24.2 2.2c0 .5-.4 1-1 .9-.6 0-1-.5-1-1.1 0-.7.4-1 1-1 .8 0 1 .4 1 1.2zM301.4 95.2c.3.1.7-.1.7.4 0 .6-.4.6-.8.6s-.6-.1-.6-.5c0-.6.4-.4.7-.5zm-8.4 16.3c.2-.4-.4-1.2.6-1.2.8 0 1.3.4 1.3 1.2 0 .7-.5 1.2-1.2 1.2-1.2.1-.4-.8-.7-1.2zm5-8.3c.3.4.6.7.5 1.1 0 .1-.5.1-.6 0-.6-.4.2-.7.1-1.1zM31.4 80.9c0 2.2-1.5 3.8-3.6 3.8s-3.6-1.7-3.6-3.9 1.5-3.8 3.6-3.7c2.3-.1 3.7 1.4 3.6 3.8zM52 82.3h-3.5c.6-1.5 1.1-3 1.8-4.7.6 1.7 1.1 3.2 1.7 4.7zm80.7-5.8v-.2c.2-.6-.5-1.5.5-1.7.9-.2 1.9-.1 2.4 1 .4.9.3 1.8-.5 2.5-.6.5-1.4.6-2 .4-.7-.2-.2-.9-.3-1.3-.1-.3-.1-.5-.1-.7zm16.9 0c-.2.8.2 1.9-1 2-1.2 0-1-1.2-1-1.9 0-.8-.2-2.1 1-2.1s.8 1.2 1 2zm24.2.8c.1.8-.3 1.4-1.1 1.4s-1.2-.6-1.2-1.3c0-.8.4-1.4 1.2-1.3.7-.1 1.1.4 1.1 1.2zm-29.7-.8c-1 .1-1.3-.4-1.4-1 0-.6.2-1.1 1-1.1.7 0 1 .4 1.1 1-.1.7-.4 1.1-.7 1.1zm22.6.7c.5-.7.9-1.3 1.3-1.9.6 1.8.4 2.1-1.3 1.9zm-9.6 0c.5-.7 1-1.3 1.4-2 .3 2.1.3 2.1-1.4 2zm-2.7-.5c-.3.2-.6.1-.9.1-.3 0-.7.2-1-.1-.2-.2.1-.4.2-.5.4-.3.7-.5 1.2-.2.2.2.5.3.5.7zM39.8 95.2c0 .6-.4.7-.8.7-.3 0-.6.1-.7-.4 0-.5.2-.5.6-.5.4 0 .8-.1.9.2zm-9.1 16.1c.2-.4-.4-1.2.7-1.2.8 0 1.2.5 1.2 1.2 0 .8-.5 1.3-1.3 1.2-1.1 0-.3-.8-.6-1.2zm5-8.3c.3.4.5.7.4 1.1 0 .1-.5.1-.6 0-.4-.4.1-.7.2-1.1z" class="st0"/><path d="M20.9 40.8c0 .9 0 1.8-.4 2.6-.3.6-.7 1-1.4 1s-1.1-.4-1.3-1a9.2 9.2 0 0 1 0-5.2c.2-.6.6-1 1.3-1 .8 0 1.2.4 1.4 1.1.4.7.4 1.6.4 2.5z" class="st1"/></svg>